<?xml version="1.0" encoding="UTF-8"?>
<svg id="Layer_1" xmlns="http://www.w3.org/2000/svg" version="1.1" viewBox="0 0 395.6 112.3">
  <!-- Generator: Adobe Illustrator 29.8.2, SVG Export Plug-In . SVG Version: 2.1.1 Build 3)  -->
  <rect x="-8" y="-19" width="408" height="143" fill="#161616"/>
  <g id="Layer_2">
    <g id="ARTWORK">
      <path d="M61.4,98.9v-15.9h15.9v-3.7h-15.9v-11.8h18.9v-4h-23.4v35.4h4.5ZM99,98.3c1.6-.7,3-1.7,4.1-3,1.2-1.2,2.1-2.7,2.7-4.3.6-1.6,1-3.4.9-5.1,0-1.8-.3-3.5-1-5.2-.6-1.6-1.5-3-2.7-4.3-2.5-2.6-5.9-4.1-9.5-4-1.8,0-3.6.4-5.3,1.1-1.6.7-3,1.7-4.1,3-1.2,1.3-2.1,2.7-2.7,4.3-.7,1.7-1,3.4-1,5.2,0,1.8.3,3.5.9,5.1.6,1.6,1.5,3.1,2.7,4.3,1.2,1.2,2.6,2.2,4.1,3,3.4,1.5,7.3,1.5,10.8,0M85.7,82.2c.4-1.1,1-2.2,1.8-3.1.8-.9,1.7-1.6,2.8-2.1,1-.5,2.2-.8,3.4-.8,1.2,0,2.3.3,3.4.8,1.1.5,2,1.2,2.8,2.1.8.9,1.4,1.9,1.9,3.1.5,1.2.7,2.5.7,3.8,0,1.3-.2,2.6-.7,3.9-.4,1.1-1.1,2.2-1.9,3.1-.8.8-1.7,1.5-2.8,2-2.1,1-4.6,1-6.7,0-1-.5-2-1.2-2.8-2-.8-.9-1.4-1.9-1.8-3.1-.5-1.2-.7-2.5-.7-3.8,0-1.3.2-2.6.7-3.9M125,97.8c1.9-1.1,3.5-2.6,4.6-4.5v3.1c.1.7.5,1.4,1,1.9.6.5,1.4.8,2.2.8h.8c.3,0,.7,0,1.2-.1v-3.8c-.9,0-1.4-.6-1.4-1.6v-20.7h-4.4v16.3c-.7,1.9-1.9,3.5-3.5,4.7-1.5,1.1-3.2,1.7-5.1,1.7-3.7,0-5.5-2.7-5.5-8v-14.8h-4.4v15.6c0,3.6.7,6.4,2.1,8.2,1.4,1.8,3.5,2.7,6.2,2.8,2.2,0,4.3-.5,6.2-1.5M162.3,83.4c0-1.5-.1-2.9-.4-4.3-.2-1.2-.6-2.4-1.3-3.5-.6-1-1.4-1.8-2.4-2.3-1.2-.6-2.4-.9-3.7-.8-2.2,0-4.4.5-6.4,1.6-1.9,1-3.4,2.5-4.5,4.4v-5.6h-4v26.1h4.4v-15.7c.3-1,.8-1.9,1.3-2.8.6-.8,1.3-1.5,2.1-2.1.8-.6,1.6-1.1,2.5-1.4.9-.3,1.8-.5,2.7-.5,1.5,0,3,.6,3.9,1.9.8,1.3,1.3,3.3,1.3,6.1v14.6h4.4v-15.6ZM184.3,98c1.7-.9,3.1-2.3,4.1-4v2.2c0,.8.4,1.5,1,2,.6.6,1.4.9,2.3.9.3,0,.6,0,.8,0l1.1-.2v-3.8c-.9,0-1.4-.6-1.4-1.6v-31.1h-4.3v15.6c-1-1.6-2.3-3-3.9-4-1.7-1.1-3.6-1.7-5.6-1.6-1.7,0-3.3.3-4.8,1.1-1.4.7-2.7,1.7-3.7,2.9-1.1,1.3-1.9,2.7-2.5,4.3-.6,1.7-.9,3.4-.9,5.2,0,1.8.3,3.5.9,5.1.6,1.6,1.5,3,2.6,4.3,1.1,1.2,2.5,2.2,4,3,1.6.7,3.3,1.1,5,1.1,1.9,0,3.7-.5,5.4-1.4M176.5,94.8c-1.1-.5-2-1.2-2.8-2.1-.8-.9-1.5-1.9-1.9-3.1-.5-1.2-.7-2.4-.7-3.7,0-1.2.2-2.5.6-3.6.4-1.1,1-2.2,1.7-3.2.7-.9,1.7-1.7,2.7-2.2,1.1-.6,2.3-.8,3.5-.8.9,0,1.7.2,2.5.5.9.3,1.7.8,2.4,1.3.8.6,1.4,1.2,2,2,.6.7,1.1,1.5,1.4,2.4v7.5c-.2.8-.5,1.6-1.1,2.3-.6.7-1.2,1.3-1.9,1.9-.7.5-1.5.9-2.4,1.2-.8.3-1.6.4-2.5.4-1.2,0-2.4-.3-3.5-.8M211.1,98.2c1.8-.8,3.3-2,4.4-3.6v1.8c.2.7.5,1.4,1,1.9.6.5,1.3.8,2.1.8.3,0,.6,0,.9,0l1.1-.2v-3.8c-.9,0-1.4-.6-1.4-1.6v-10.6c0-3.3-1-5.9-2.9-7.8s-4.6-2.7-8-2.7c-3.6,0-7.2,1.3-10.1,3.4l1.4,2.8c2.9-2,5.7-3,8.3-3,3.5-.4,6.6,2.1,6.9,5.6,0,.4,0,.8,0,1.2v2.1c-1.1-.4-2.3-.8-3.5-1-1.3-.2-2.6-.3-3.9-.3-1.5,0-3,.2-4.4.6-1.2.4-2.4.9-3.5,1.6-.9.7-1.7,1.5-2.3,2.5-.5,1-.8,2.1-.8,3.3,0,1.1.2,2.2.7,3.2.4,1,1.1,1.8,1.8,2.6.8.8,1.7,1.3,2.8,1.7,1.1.4,2.3.6,3.4.6,2,0,3.9-.4,5.7-1.2M204.3,95.7c-.7-.2-1.3-.6-1.8-1.1-1.1-.9-1.6-2.3-1.6-3.7,0-1.5.8-2.9,2.1-3.7,1.6-1,3.5-1.5,5.4-1.4,2.3,0,4.5.4,6.6,1.2v3.9c0,.8-.4,1.5-.9,1.9-.8,1-1.9,1.8-3.1,2.3-1.4.6-2.9.9-4.4.9-.8,0-1.5-.1-2.2-.4M237.6,94.1c-.5.3-1,.5-1.5.7-.8.3-1.6.4-2.4.4-.7,0-1.4-.2-2-.6-.6-.5-1-1.3-.9-2.1v-16.2h5.8v-3.5h-5.8v-8.7h-4.4v8.7h-3.5v3.5h3.5v17.5c-.1,1.6.5,3.1,1.7,4.1,1.2.9,2.7,1.4,4.2,1.3.7,0,1.4,0,2-.2.6-.1,1.2-.3,1.8-.5.5-.2,1-.4,1.5-.5s.8-.3,1-.5l-1-3.5ZM246.1,72.8h-4.4v26.1h4.4v-26.1ZM246.1,62.4h-4.4v5.5h4.4v-5.5ZM268.8,98.3c1.6-.7,3-1.7,4.2-3,1.2-1.2,2.1-2.7,2.7-4.3.6-1.6,1-3.4,1-5.1,0-1.8-.3-3.5-1-5.2-.6-1.6-1.5-3-2.7-4.3-2.5-2.6-5.9-4.1-9.5-4-1.8,0-3.6.4-5.3,1.1-1.6.7-3,1.7-4.1,3-1.2,1.2-2.1,2.7-2.7,4.3-.6,1.7-1,3.4-1,5.2,0,1.8.3,3.5.9,5.1.6,1.6,1.5,3.1,2.7,4.3,2.5,2.6,5.9,4.1,9.5,4,1.9,0,3.7-.3,5.4-1.1M255.5,82.1c.4-1.1,1.1-2.2,1.8-3.1.8-.9,1.7-1.6,2.8-2.1,1-.5,2.2-.8,3.4-.8,1.2,0,2.3.3,3.4.8,1.1.5,2,1.2,2.8,2.1.8.9,1.4,1.9,1.9,3.1.5,1.2.7,2.5.7,3.8,0,1.3-.2,2.6-.7,3.9-.4,1.1-1.1,2.2-1.9,3.1-.8.9-1.7,1.6-2.8,2.1-2.1,1-4.6,1-6.7,0-1-.5-2-1.2-2.8-2-.8-.9-1.4-1.9-1.8-3.1-.5-1.2-.7-2.5-.7-3.8,0-1.3.2-2.6.7-3.9M303.6,83.3c0-1.5-.1-2.9-.4-4.3-.2-1.2-.6-2.4-1.3-3.5-.6-1-1.4-1.8-2.4-2.3-1.2-.6-2.4-.8-3.7-.8-2.2,0-4.4.6-6.4,1.6-1.9,1-3.4,2.5-4.5,4.4v-5.6h-4v26.1h4.4v-15.7c.3-1,.8-1.9,1.4-2.8.6-.8,1.3-1.5,2.1-2.1.8-.6,1.6-1.1,2.6-1.4.9-.3,1.8-.5,2.7-.5,1.5,0,3,.6,3.9,1.9.8,1.3,1.3,3.3,1.3,6.1v14.6h4.4v-15.6Z" fill="#828282"/>
      <path d="M74.4,17.4h-29v4h12.2v31.5h4.5v-31.5h12.2v-4ZM100.9,37.3c0-1.5-.1-2.9-.4-4.3-.2-1.2-.7-2.4-1.4-3.5-.6-1-1.5-1.8-2.5-2.3-1.2-.6-2.5-.9-3.9-.8-2,0-4,.5-5.8,1.6-1.8,1.1-3.2,2.6-4.2,4.4v-15.9h-4.4v36.5h4.4v-15.7c.3-1,.7-1.9,1.3-2.7.6-.8,1.2-1.5,2-2.1.7-.6,1.6-1.1,2.4-1.4.8-.3,1.7-.5,2.6-.5,1.6,0,3.2.7,4.1,2,.9,1.3,1.4,3.3,1.4,6v14.6h4.4v-15.6ZM121.8,52.9c1.1-.3,2.2-.8,3.3-1.4,1-.6,1.8-1.3,2.6-2.1.7-.8,1.3-1.7,1.8-2.7l-3.8-1c-.3.7-.7,1.3-1.2,1.8-.5.5-1.1,1-1.8,1.4-.7.4-1.4.7-2.1.9-.8.2-1.5.3-2.3.3-1.1,0-2.2-.2-3.2-.6-1-.4-1.9-1-2.7-1.8-.8-.8-1.5-1.7-1.9-2.7-.5-1.1-.8-2.3-.9-3.6h21.6c0-.2,0-.4,0-.7s0-.6,0-1c0-1.7-.3-3.4-.9-5-1.2-3.2-3.6-5.8-6.7-7.2-1.7-.8-3.5-1.1-5.4-1.1-1.9,0-3.7.3-5.4,1.1-1.6.7-3,1.7-4.2,2.9-1.2,1.2-2.1,2.7-2.7,4.3-.7,1.7-1,3.4-1,5.2,0,1.8.3,3.6,1,5.2.6,1.6,1.5,3.1,2.7,4.3,1.2,1.2,2.6,2.2,4.2,2.9,1.7.7,3.5,1.1,5.4,1.1,1.3,0,2.5-.2,3.7-.5M109.3,38.1c0-1.2.4-2.3.9-3.4.5-1,1.1-1.9,1.9-2.7.8-.8,1.7-1.3,2.7-1.7,3.2-1.3,6.8-.6,9.3,1.7.8.8,1.5,1.7,1.9,2.7.5,1.1.8,2.2.9,3.4h-17.7ZM159.8,33l-6,14.6-12-30.3h-4.8l14.8,35.4h3.9l7.1-16.7,7,16.7h3.9l14.8-35.4h-4.9l-12,30.3-6.1-14.6,6.2-15.4h-4.2l-4.7,12.3-4.7-12.3h-4.2l6.1,15.4ZM203.7,52.3c3.2-1.4,5.6-4,6.9-7.2.6-1.7,1-3.4,1-5.2,0-1.8-.3-3.5-1-5.2-.6-1.6-1.5-3-2.7-4.3-2.5-2.6-5.9-4.1-9.5-4-1.8,0-3.6.4-5.3,1.1-1.6.7-3,1.7-4.1,3-1.2,1.3-2.1,2.7-2.7,4.3-.7,1.7-1,3.4-1,5.2,0,1.8.3,3.5.9,5.1.6,1.6,1.5,3.1,2.7,4.3,3.9,4,9.8,5.2,14.9,2.9M190.4,36.1c.4-1.1,1-2.2,1.8-3.1.8-.9,1.7-1.6,2.7-2.1,1.1-.5,2.2-.8,3.4-.8,1.2,0,2.3.3,3.4.8,1.1.5,2,1.2,2.8,2.1.8.9,1.4,1.9,1.9,3.1.5,1.2.7,2.5.7,3.8,0,1.3-.2,2.6-.7,3.9-.4,1.1-1.1,2.2-1.9,3.1-.8.9-1.7,1.6-2.8,2.1-2.1,1-4.6,1-6.7,0-1-.5-2-1.2-2.7-2-.8-.9-1.4-1.9-1.8-3.1-.5-1.2-.7-2.5-.7-3.8,0-1.3.2-2.6.7-3.9M216,47.7c0,1.5.4,3,1.5,4.1,1.1,1,2.5,1.5,4,1.4.9,0,1.8-.1,2.6-.3.9-.2,1.8-.4,2.6-.8l-.7-3.6c-.5.2-.9.3-1.4.4-.4.1-.9.2-1.3.2-.8,0-1.6-.3-2.2-.8-.6-.6-.8-1.5-.8-2.3v-29.6h-4.4v31.3ZM234.9,52.9v-22.6h6.9v-3.5h-6.9v-.7c-.1-1.7.3-3.3,1.1-4.8.8-1.1,2-1.7,3.3-1.6.7,0,1.4.1,2,.3.6.2,1.2.4,1.7.8l1.1-3.2c-.8-.5-1.7-.9-2.7-1.2-1-.3-2-.4-3.1-.4-2.3,0-4.5.9-5.8,2.8-1.4,1.8-2.1,4.4-2.1,7.6v.5h-3.6v3.5h3.6v22.6h4.4ZM262,51.2c1.8-1.4,2.9-3.5,2.8-5.8,0-1-.2-1.9-.6-2.8-.5-.8-1.1-1.5-1.9-2-1-.6-2.1-1.1-3.2-1.5-1.3-.4-2.8-.8-4.5-1.2-1.1-.3-2-.5-2.8-.8-.7-.2-1.3-.4-1.9-.8-.4-.2-.8-.6-1.1-1-.2-.5-.3-1-.3-1.5,0-1.3.5-2.6,1.7-3.3,1.2-.7,2.6-1.1,4.1-1,1.4,0,2.8.2,4.2.7,1.4.5,2.6,1.2,3.7,2.2l2-2.7c-1.3-1.1-2.7-1.9-4.3-2.5-1.8-.6-3.6-1-5.5-.9-1.3,0-2.6.2-3.9.5-1.1.3-2.2.8-3.2,1.5-.9.7-1.6,1.5-2.1,2.6-.5,1.1-.8,2.3-.8,3.5,0,.9.1,1.8.5,2.6.4.7.9,1.3,1.6,1.8.9.6,1.8,1,2.8,1.3,1.1.4,2.5.7,4,1.1,1.2.3,2.3.6,3.3.8.8.2,1.6.5,2.3.9.5.3,1,.7,1.3,1.2.3.5.5,1.1.5,1.6,0,1.3-.6,2.5-1.7,3.2-1.4.8-2.9,1.2-4.5,1.1-1.7,0-3.3-.3-4.8-.9-1.7-.6-3.2-1.5-4.6-2.6l-1.9,2.9c1.5,1.3,3.3,2.2,5.2,2.8,2,.6,4.1,1,6.2,1,3.2,0,5.7-.7,7.5-2.1M285.8,52.3c3.2-1.4,5.6-4,6.9-7.2.6-1.6.9-3.4.9-5.2,0-1.8-.3-3.5-1-5.2-.6-1.6-1.5-3-2.7-4.3-2.5-2.6-5.9-4.1-9.5-4-1.8,0-3.6.4-5.3,1.1-1.6.7-3,1.7-4.2,3-1.2,1.3-2.1,2.7-2.7,4.3-.7,1.7-1,3.4-1,5.2,0,1.8.3,3.5.9,5.1.6,1.6,1.5,3.1,2.7,4.3,3.9,4,9.8,5.2,14.9,3M272.5,36.1c.4-1.1,1-2.2,1.8-3.1.8-.9,1.7-1.6,2.7-2.1,1.1-.5,2.2-.8,3.4-.8,1.2,0,2.3.3,3.4.8,1,.5,2,1.2,2.8,2,.8.9,1.4,1.9,1.9,3.1.5,1.2.7,2.5.7,3.8,0,1.3-.2,2.6-.7,3.9-.4,1.1-1.1,2.2-1.9,3.1-.8.9-1.7,1.6-2.8,2.1-2.1,1-4.6,1-6.7,0-1.1-.5-2-1.1-2.8-2-.8-.9-1.4-1.9-1.8-3.1-.5-1.2-.7-2.5-.7-3.8,0-1.3.2-2.6.7-3.9M320.5,37.2c0-1.5-.1-2.9-.4-4.3-.2-1.2-.6-2.4-1.2-3.4-.6-1-1.4-1.8-2.4-2.3-1.2-.6-2.5-.9-3.8-.8-2.2,0-4.4.6-6.4,1.6-1.9,1-3.4,2.5-4.5,4.4v-5.6h-4v26.1h4.4v-15.7c.3-1,.7-1.9,1.3-2.7.6-.8,1.3-1.5,2.1-2.1.8-.6,1.6-1.1,2.5-1.4.9-.3,1.8-.5,2.7-.5,1.5,0,3,.6,3.9,1.9.8,1.3,1.3,3.3,1.3,6.1v14.6h4.4v-15.6Z" fill="#fff"/>
      <path d="M339.4,29.3l-1.7-1.7.2-.3-.9-.6h-.1c0,.1-.2,0-.2,0l-.9.6.2.3-1.7,1.7,1.1-2.2h.4c0,0,.3-.9.3-.9h-.2c0-.1.1-.3.1-.3l-.8-.6-.3.3-2.2-1.1,2.4.4v.4h1.1v-.2h.2l.3-1-.3-.2.4-2.4.4,2.4-.3.2.3,1h.2v.2h1.1v-.4c0,0,2.5-.4,2.5-.4l-2.2,1.1-.3-.3-.9.6v.2c0,0,0,.1,0,.1l.3,1h.4c0,0,1.1,2.1,1.1,2.1ZM350.2,25.3l-.4-1.2-8.1,1.3,2.4-1.3,5.4-.9-.4-1.1-2.4.4,2.2-1.1-.4-1.2-4.9,2.5-2.7.4,7.3-3.7-.4-1.2-9,4.7,1.6-10h-1.3l-1.3,8.1-.4-2.7.8-5.4h-1.2l-.3,2.4-.3-2.4h-1.2l.8,5.4-.4,2.7-1.3-8.1h-1.3l1.6,10-9-4.6-.4,1.2,7.3,3.7-2.7-.4-4.9-2.5-.4,1.1,2.2,1.1-2.4-.4-.4,1.2,5.4.9,2.4,1.2-8.1-1.3-.4,1.2,10,1.5-7.2,7.1,1,.8,5.8-5.8-1.2,2.4-3.9,3.9,1,.7,1.7-1.8-1.2,2.2,1,.7,2.5-4.9,1.9-1.9-3.8,7.3,1,.8,4.6-9.1,4.5,9.1,1-.8-3.8-7.3,1.9,1.9,2.5,4.9,1-.7-1.2-2.2,1.7,1.8,1-.7-3.9-3.9-1.2-2.4,5.8,5.8,1-.8-7.2-7.2,10-1.5Z" fill="#de0613"/>
    </g>
  </g>
</svg>