<?xml version="1.0" encoding="UTF-8"?>
<svg id="Layer_1" data-name="Layer 1" xmlns="http://www.w3.org/2000/svg" viewBox="0 0 611.2 200.03">
  <defs>
    <style>
      .cls-1 {
        fill: #1d1e1c;
      }

      .cls-2 {
        fill: #fff;
      }

      .cls-3 {
        fill: #e6007e;
      }
    </style>
  </defs>
  <g>
    <path class="cls-3" d="M222.83,129.55c-5.55,6.93-12.85,10.39-21.89,10.39-3.78,0-7.25-.64-10.39-1.92-3.14-1.28-5.83-3.05-8.07-5.31-2.24-2.26-3.98-4.96-5.23-8.11-1.25-3.14-1.88-6.61-1.88-10.39s.61-7.19,1.84-10.35c1.23-3.17,2.97-5.92,5.23-8.25,2.26-2.33,4.96-4.15,8.11-5.45,3.14-1.3,6.61-1.95,10.39-1.95,4.27,0,8.23.71,11.86,2.14,3.64,1.43,6.71,3.91,9.21,7.44l-8.62,8.7c-1.38-1.87-3.02-3.36-4.94-4.49-1.92-1.13-4.1-1.69-6.56-1.69-2.06,0-3.91.34-5.53,1.03-1.62.69-2.99,1.65-4.09,2.87-1.11,1.23-1.95,2.67-2.54,4.31-.59,1.65-.89,3.43-.89,5.34s.31,3.78.92,5.45c.61,1.67,1.49,3.12,2.62,4.35,1.13,1.23,2.49,2.19,4.09,2.87,1.6.69,3.38,1.03,5.34,1.03,2.85,0,5.17-.5,6.96-1.51,1.79-1.01,3.55-2.59,5.27-4.75l8.77,8.25Z"/>
    <path class="cls-3" d="M249.95,139.86c-3.68,0-7.09-.65-10.21-1.95-3.12-1.3-5.82-3.1-8.11-5.38-2.28-2.28-4.07-5.01-5.34-8.18-1.28-3.17-1.92-6.62-1.92-10.35s.64-7.19,1.92-10.35c1.28-3.17,3.06-5.9,5.34-8.18,2.28-2.28,4.99-4.06,8.11-5.34,3.12-1.28,6.52-1.92,10.21-1.92s7.1.64,10.24,1.92c3.14,1.28,5.85,3.06,8.11,5.34,2.26,2.28,4.03,5.01,5.31,8.18,1.28,3.17,1.92,6.62,1.92,10.35s-.64,7.19-1.92,10.35c-1.28,3.17-3.05,5.9-5.31,8.18-2.26,2.28-4.96,4.08-8.11,5.38-3.14,1.3-6.56,1.95-10.24,1.95ZM249.95,127.63c1.92,0,3.62-.36,5.12-1.07,1.5-.71,2.76-1.68,3.79-2.91,1.03-1.23,1.82-2.68,2.36-4.35.54-1.67.81-3.44.81-5.31s-.27-3.63-.81-5.31c-.54-1.67-1.33-3.12-2.36-4.35-1.03-1.23-2.3-2.2-3.79-2.91-1.5-.71-3.21-1.07-5.12-1.07s-3.62.36-5.12,1.07c-1.5.71-2.76,1.68-3.8,2.91-1.03,1.23-1.82,2.68-2.36,4.35-.54,1.67-.81,3.44-.81,5.31s.27,3.64.81,5.31c.54,1.67,1.33,3.12,2.36,4.35,1.03,1.23,2.3,2.2,3.8,2.91,1.5.71,3.2,1.07,5.12,1.07Z"/>
    <path class="cls-3" d="M282.48,89.53h12.45l11.94,21.44,11.72-21.44h12.53l2.28,49.15h-13.19l-1.18-28.81-8.62,16.8h-7.15l-9.58-16.8-.96,28.81h-12.53l2.28-49.15Z"/>
    <path class="cls-3" d="M341.08,89.53h12.45l11.94,21.44,11.72-21.44h12.53l2.28,49.15h-13.19l-1.18-28.81-8.62,16.8h-7.15l-9.58-16.8-.96,28.81h-12.53l2.28-49.15Z"/>
    <path class="cls-3" d="M397.83,89.53h13.04v28.81c0,2.7.63,4.91,1.88,6.63,1.25,1.72,3.33,2.58,6.23,2.58s4.96-.87,6.19-2.62c1.23-1.74,1.84-3.94,1.84-6.6v-28.81h13.19v29.99c0,3.14-.52,5.98-1.55,8.51-1.03,2.53-2.49,4.68-4.38,6.45-1.89,1.77-4.13,3.12-6.71,4.05-2.58.93-5.42,1.4-8.51,1.4s-5.94-.47-8.55-1.4c-2.6-.93-4.85-2.27-6.74-4.02-1.89-1.74-3.35-3.88-4.39-6.41-1.03-2.53-1.55-5.39-1.55-8.59v-29.99Z"/>
    <path class="cls-3" d="M447.52,89.53h11.86l18.87,27.41v-27.41h12.9v49.15h-11.13l-19.6-28.22v28.22h-12.9v-49.15Z"/>
    <path class="cls-3" d="M498.89,89.53h13.04v49.15h-13.04v-49.15Z"/>
    <path class="cls-3" d="M532.94,100.95h-15.11v-11.42h43.26v11.42h-14.96v37.73h-13.19v-37.73Z"/>
    <path class="cls-3" d="M580.62,119.08l-17.46-29.55h14.96l9.58,17.54,8.99-17.54h14.52l-17.54,29.48v19.68h-13.04v-19.6Z"/>
  </g>
  <g>
    <g>
      <polygon class="cls-1" points="177.03 197.73 177.03 149.74 207.55 149.74 207.55 156.8 184.79 156.8 184.79 170.17 202.12 170.17 202.12 177.16 184.79 177.16 184.79 197.73 177.03 197.73"/>
      <path class="cls-2" d="M207.04,150.24v6.06h-22.76v14.37h17.33v5.99h-17.33v20.57h-6.76v-46.99h29.52M208.04,149.24h-31.52v48.99h8.76v-20.57h17.33v-7.99h-17.33v-12.37h22.76v-8.06h0Z"/>
    </g>
    <g>
      <path class="cls-1" d="M230.85,198.93c-3.25,0-6.11-.51-8.51-1.52-2.41-1.01-4.43-2.41-6.02-4.18-1.59-1.76-2.79-3.86-3.56-6.24-.76-2.36-1.15-4.94-1.15-7.66v-29.6h7.76v27.98c0,2.07.19,3.99.55,5.71.36,1.68.98,3.15,1.85,4.36.86,1.19,2.02,2.12,3.46,2.76,1.45.65,3.34.98,5.61.98s4.08-.33,5.54-.98c1.44-.64,2.6-1.57,3.46-2.76.87-1.21,1.49-2.67,1.85-4.36.37-1.72.55-3.65.55-5.71v-27.98h7.76v29.6c0,2.72-.39,5.29-1.15,7.66-.77,2.38-1.96,4.48-3.52,6.24-1.57,1.76-3.59,3.17-5.99,4.18-2.4,1.01-5.26,1.52-8.51,1.52Z"/>
      <path class="cls-2" d="M249.52,150.24v29.1c0,2.68-.38,5.18-1.13,7.5-.75,2.32-1.89,4.34-3.42,6.06-1.53,1.71-3.46,3.06-5.81,4.05-2.35.99-5.12,1.48-8.31,1.48s-5.97-.49-8.31-1.48c-2.35-.99-4.3-2.34-5.85-4.05-1.55-1.71-2.7-3.73-3.45-6.06-.75-2.32-1.13-4.83-1.13-7.5v-29.1h6.76v27.48c0,2.11.19,4.05.56,5.81.37,1.76,1.02,3.28,1.94,4.54.92,1.27,2.14,2.24,3.66,2.92,1.53.68,3.46,1.02,5.81,1.02s4.22-.34,5.74-1.02c1.53-.68,2.75-1.66,3.66-2.92.92-1.27,1.56-2.78,1.94-4.54.37-1.76.56-3.7.56-5.81v-27.48h6.76M250.52,149.24h-8.76v28.48c0,2.03-.18,3.91-.54,5.6-.35,1.62-.94,3.02-1.77,4.17-.81,1.12-1.9,1.99-3.26,2.6-1.39.62-3.19.94-5.34.94s-4.02-.31-5.4-.93c-1.36-.6-2.45-1.48-3.26-2.6-.83-1.15-1.43-2.55-1.77-4.17-.36-1.69-.54-3.57-.54-5.6v-28.48h-8.76v30.1c0,2.77.4,5.4,1.18,7.81.79,2.45,2.02,4.61,3.66,6.42,1.64,1.82,3.73,3.26,6.2,4.3,2.46,1.03,5.39,1.56,8.7,1.56s6.24-.52,8.7-1.56c2.48-1.04,4.55-2.49,6.17-4.31,1.61-1.81,2.83-3.97,3.62-6.42.78-2.42,1.18-5.04,1.18-7.81v-30.1h0Z"/>
    </g>
    <g>
      <polygon class="cls-1" points="288.72 197.73 263.77 162.04 263.77 197.73 256.15 197.73 256.15 149.74 263.74 149.74 288.63 185.36 288.63 149.74 296.25 149.74 296.25 197.73 288.72 197.73"/>
      <path class="cls-2" d="M295.75,150.24v46.99h-6.76l-25.71-36.78v36.78h-6.62v-46.99h6.83l25.64,36.71v-36.71h6.62M296.75,149.24h-8.62v34.53l-23.82-34.1-.3-.43h-8.36v48.99h8.62v-34.6l23.89,34.17.3.43h8.29v-48.99h0Z"/>
    </g>
    <g>
      <path class="cls-1" d="M302.14,197.73v-47.99h16.21c3.74,0,7.24.47,10.39,1.39,3.18.93,5.95,2.41,8.25,4.4,2.3,1.99,4.12,4.53,5.42,7.54,1.29,3.01,1.94,6.63,1.94,10.76s-.65,7.54-1.94,10.52c-1.29,2.99-3.11,5.52-5.42,7.51-2.3,1.99-5.09,3.48-8.29,4.43-3.17.95-6.68,1.43-10.43,1.43h-16.14ZM318.14,190.67c5.72,0,10.22-1.42,13.37-4.21,3.14-2.78,4.73-6.98,4.73-12.48s-1.54-9.86-4.57-12.78c-3.04-2.92-7.66-4.4-13.74-4.4h-8.02v33.87h8.24Z"/>
      <path class="cls-2" d="M318.35,150.24c3.71,0,7.13.46,10.25,1.37,3.12.92,5.81,2.35,8.07,4.3,2.25,1.95,4.02,4.4,5.28,7.36,1.27,2.96,1.9,6.48,1.9,10.57s-.63,7.39-1.9,10.32c-1.27,2.94-3.03,5.38-5.28,7.33-2.25,1.95-4.96,3.39-8.1,4.33-3.15.94-6.58,1.41-10.29,1.41h-15.64v-46.99h15.71M309.4,191.17h8.74c5.87,0,10.44-1.44,13.7-4.33,3.26-2.89,4.9-7.17,4.9-12.86s-1.57-10.11-4.72-13.14c-3.15-3.03-7.84-4.54-14.09-4.54h-8.52v34.87M318.35,149.24h-16.71v48.99h16.64c3.79,0,7.35-.49,10.57-1.45,3.27-.98,6.12-2.5,8.47-4.53,2.36-2.04,4.22-4.62,5.55-7.69,1.32-3.05,1.98-6.65,1.98-10.72s-.67-7.89-1.98-10.96c-1.32-3.09-3.19-5.68-5.55-7.72-2.35-2.03-5.19-3.55-8.44-4.5-3.2-.94-6.74-1.41-10.53-1.41h0ZM310.4,157.3h7.52c5.95,0,10.46,1.43,13.4,4.26,2.93,2.82,4.41,7,4.41,12.42s-1.53,9.43-4.56,12.11c-3.06,2.71-7.45,4.08-13.04,4.08h-7.74v-32.87h0Z"/>
    </g>
  </g>
  <g>
    <g>
      <path d="M144.01,89.49c-1.84,0-5.77,1.04-7.88,3.15.79-9.19-2.62-16-8.91-18.36-3.94-1.32-8.14-1.05-11.81.53l-5.12-12.33c4.72-11.55,12.98-25.61,12.98-37.15,0-8.91-4.51-15.48-13.16-15.48-5.25,0-11.03,4.3-15.42,9.85C88.66,6.3,82.36,0,75.55,0,64.79,0,60.33,10.77,60.33,19.95c0,7.61,2.09,20.2,10.24,38.05-5.51,12.34-9.72,22.56-14.7,38.3-6.55-6.81-17.31-13.64-30.95-13.64-7.08,0-13.12,1.84-17.84,5C2.62,90.8,0,94.99,0,99.46c0,6.55,4.46,11.02,11.28,12.86,11.8,3.14,17.05,12.59,21.51,31.22,8.13,33.59,29.12,53.79,61.38,53.79,34.1,0,61.9-27.81,61.9-61.93,0-4.97-.52-8.91-1.31-13.38,1.04-2.62,1.83-5.51,2.36-7.86,2.88-14.44-2.62-24.67-13.11-24.67"/>
      <path class="cls-2" d="M124.53,81.59c5.48,2.53,5.9,13.94.39,27.57-4.46,13.13-10.88,21.15-16.86,21.19-4.72.03-8.65-3.34-8.65-12.26,0-16.79,13.79-41.73,25.12-36.5"/>
      <path class="cls-2" d="M67.93,19.95c0-5.5,2.36-12.07,7.61-12.07,3.67,0,8.12,5.78,13.37,17.31-4.46,5.78-9.18,13.38-13.9,22.84-4.73-12.33-7.09-21.52-7.09-28.08"/>
      <path class="cls-2" d="M94.16,189.46c-27.53,0-46.43-19.15-53.78-47.76-4.98-19.68-11.28-32.79-27.28-36.99-1.84-.53-5.25-1.83-5.25-5.25,0-3.69,6.04-8.93,17.05-8.93,13.07,0,23.88,8.02,31.22,18.68l5.6-2.09c.83-10.75,6.31-25.45,15.91-45.98,12.06-25.97,24.33-43.68,32.46-43.45,2.59.07,5.69,3.15,5.69,7.61,0,10.76-9.49,26.87-17.78,44.43-.84,1.76-4.61,10.07-4.61,10.07l5.43,2.35c1.78-2.98,5.46-10.17,5.95-11.37l4.07,9c-8.65,7.35-16.26,24.66-16.26,38.31,0,9.97,4.46,16.2,11.02,18.29,6.03,1.85,11.8.08,16.26-5.18,1.05,6.31,5.25,11.75,13.38,11.75,7.19,0,11.91-4.13,15.48-11.22,1.3,33.06-25.98,57.72-54.57,57.72"/>
      <path class="cls-2" d="M150.04,113.1c-1.84,11.03-8.54,23.28-16.78,23.28s-7.41-10.42-5.58-16.72c2.89-11.28,10.56-23.08,16.33-23.08,5.24,0,7.6,7.08,6.03,16.52"/>
      <path d="M122.17,168.38c-23.36,13.26-45.08,4.8-53.28-19.4l6.8-3.18c6.68,19.71,25.92,25.11,43.73,15.84l2.76,6.75Z"/>
      <path d="M115.81,117.83c0,3.38-2.72,6.1-6.09,6.1s-6.09-2.72-6.09-6.1,2.73-6.09,6.09-6.09,6.09,2.73,6.09,6.09"/>
      <path d="M141.47,125.21c0,3.03-2.45,5.48-5.48,5.48s-5.48-2.45-5.48-5.48,2.46-5.48,5.48-5.48,5.48,2.46,5.48,5.48"/>
    </g>
    <g>
      <path class="cls-1" d="M131.16,25.31c-.79,0-1.54-.15-2.23-.44-.69-.29-1.29-.7-1.8-1.22-.51-.52-.91-1.13-1.2-1.81-.29-.69-.44-1.44-.44-2.23s.15-1.54.44-2.23c.29-.68.69-1.29,1.2-1.81.5-.51,1.11-.92,1.8-1.22.69-.3,1.45-.45,2.25-.45s1.54.15,2.23.45c.69.3,1.29.71,1.79,1.22.5.51.91,1.12,1.2,1.81.29.69.44,1.44.44,2.23s-.15,1.54-.44,2.23c-.3.69-.7,1.3-1.2,1.81-.5.51-1.11.92-1.8,1.22-.69.29-1.44.44-2.23.44ZM131.18,15.23c-.61,0-1.18.12-1.69.34-.52.23-.97.54-1.35.93-.38.39-.68.86-.89,1.39-.21.53-.32,1.11-.32,1.72s.1,1.19.32,1.72c.21.53.51,1,.88,1.39.38.39.83.7,1.34.92.52.22,1.09.33,1.7.33s1.18-.11,1.7-.33c.51-.22.97-.53,1.34-.92.38-.39.67-.86.89-1.39.21-.54.32-1.1.32-1.72s-.11-1.19-.32-1.72c-.21-.53-.51-1-.89-1.39-.38-.39-.83-.7-1.34-.93-.52-.23-1.08-.34-1.68-.34ZM132.39,22.53l-1.26-2.19h-.7v2.19h-1.32v-5.9h2.3c.36,0,.68.05.95.16.28.11.5.25.67.42.18.17.31.36.39.58.08.21.12.42.12.63,0,.39-.1.74-.29,1.05-.17.28-.43.5-.76.66l1.42,2.4h-1.51ZM131.36,19.24c.29,0,.5-.07.63-.2.13-.14.19-.32.19-.56s-.06-.42-.2-.53c-.13-.12-.37-.18-.68-.18h-.87v1.46h.93Z"/>
      <path class="cls-2" d="M131.18,14.02c.78,0,1.51.15,2.18.44.67.29,1.26.69,1.75,1.19.5.5.89,1.09,1.18,1.77.29.68.43,1.4.43,2.18s-.14,1.51-.43,2.19c-.29.68-.68,1.27-1.18,1.78-.49.51-1.08.9-1.76,1.19-.68.29-1.4.43-2.18.43s-1.51-.15-2.18-.43c-.68-.29-1.26-.68-1.76-1.19-.49-.51-.89-1.1-1.18-1.78-.29-.68-.43-1.41-.43-2.19s.14-1.51.43-2.18c.29-.68.68-1.27,1.18-1.77.5-.5,1.08-.9,1.76-1.19.68-.29,1.41-.44,2.2-.44M131.16,24.11c.63,0,1.21-.11,1.75-.34.53-.23.99-.55,1.38-.95.39-.4.69-.88.91-1.43.22-.55.33-1.14.33-1.77s-.11-1.22-.33-1.77c-.22-.55-.52-1.03-.91-1.43-.39-.4-.85-.72-1.38-.96-.53-.24-1.11-.35-1.73-.35s-1.21.12-1.74.35c-.53.24-1,.56-1.39.96-.39.41-.7.88-.92,1.43-.22.55-.33,1.14-.33,1.77s.11,1.22.33,1.77c.22.55.52,1.03.91,1.43.39.41.85.72,1.38.95.54.23,1.12.34,1.75.34M131.4,16.75c.35,0,.65.05.9.15.25.1.46.23.63.39.17.16.29.34.36.53.07.2.11.39.11.58,0,.36-.09.69-.27.98-.18.29-.46.51-.83.66l1.38,2.34h-1.22l-1.26-2.19h-.9v2.19h-1.07v-5.65h2.18M130.3,19.36h1.06c.33,0,.57-.08.72-.24.15-.16.22-.38.22-.64s-.08-.49-.24-.63c-.16-.14-.41-.21-.77-.21h-.99v1.71M131.18,13.77c-.81,0-1.59.16-2.3.46-.71.31-1.32.73-1.84,1.25-.52.53-.93,1.15-1.23,1.85-.3.71-.45,1.47-.45,2.28s.15,1.58.45,2.28c.3.7.71,1.32,1.23,1.85.52.53,1.14.95,1.84,1.25.71.3,1.47.45,2.28.45s1.57-.15,2.28-.45c.71-.3,1.33-.72,1.84-1.25.51-.52.93-1.15,1.23-1.85.3-.71.45-1.48.45-2.28s-.15-1.58-.45-2.28c-.3-.7-.71-1.33-1.23-1.85-.51-.52-1.13-.94-1.83-1.25-.71-.31-1.47-.46-2.28-.46h0ZM131.16,23.86c-.59,0-1.15-.11-1.65-.32-.5-.21-.94-.52-1.3-.9-.36-.38-.65-.83-.86-1.35-.21-.52-.31-1.07-.31-1.68s.1-1.16.31-1.67c.21-.52.5-.97.87-1.35.37-.38.81-.68,1.31-.91.5-.22,1.05-.33,1.64-.33s1.13.11,1.63.33c.5.22.94.53,1.3.9.37.38.65.84.86,1.35.21.52.31,1.08.31,1.67s-.1,1.16-.31,1.68c-.21.52-.5.97-.86,1.35,0,0,0,0,0,0l-.22-.37-1.24-2.1c.3-.16.53-.38.69-.64.2-.33.31-.7.31-1.11,0-.23-.04-.45-.13-.67-.09-.23-.23-.45-.42-.63-.18-.18-.41-.32-.7-.44-.28-.11-.62-.17-1-.17h-2.43v6.15h1.57v-2.19h.5l1.19,2.07.07.13h1.79c-.36.38-.8.68-1.29.89-.5.21-1.05.32-1.65.32h0ZM130.55,17.9h.74c.36,0,.53.08.6.15.1.09.16.23.16.44s-.05.36-.16.47c-.1.11-.28.16-.54.16h-.81v-1.21h0Z"/>
    </g>
  </g>
</svg>