<?xml version="1.0" encoding="utf-8"?>
<!-- Generator: Adobe Illustrator 25.1.0, SVG Export Plug-In . SVG Version: 6.00 Build 0)  -->
<svg version="1.0" id="Layer_1" xmlns="http://www.w3.org/2000/svg" xmlns:xlink="http://www.w3.org/1999/xlink" x="0px" y="0px"
	 viewBox="0 0 504.71 190.24" style="enable-background:new 0 0 504.71 190.24;" xml:space="preserve">
<style type="text/css">
	.st0{fill:#FFFFFF;}
	.st1{fill:#BD1F3C;}
	.st2{fill:#69B652;}
	.st3{fill:#82368C;}
	.st4{fill:#E27118;}
	.st5{fill:#20ABE2;}
	.st6{opacity:0.4;}
	.st7{fill:url(#SVGID_1_);}
	.st8{fill:url(#SVGID_2_);}
	.st9{fill:url(#SVGID_3_);}
	.st10{fill:url(#SVGID_4_);}
	.st11{fill:url(#SVGID_5_);}
</style>
<g>
	<path class="st0" d="M224.93,77.16h-21.99v22.38c0,4.92-4.14,9.05-9.31,9.05c-4.92,0-9.05-4.14-9.05-9.05V31.89
		c0-5.69,4.66-10.35,10.35-10.35h30.01c18.75,0,28.97,12.68,28.97,27.81C253.9,64.36,243.56,77.16,224.93,77.16z M222.47,37.71
		h-19.53V61h19.53c7.24,0,12.68-4.53,12.68-11.64C235.15,42.11,229.72,37.71,222.47,37.71z"/>
	<path class="st0" d="M300.77,108.59c-2.72,0-5.3-1.16-6.98-3.49l-24.06-31.82l-6.73,8.02v18.24c0,4.92-4.14,9.05-9.31,9.05
		c-4.92,0-9.05-4.14-9.05-9.05V29.82c0-4.92,4.14-9.05,9.31-9.05c4.92,0,9.05,4.14,9.05,9.05v30.27l28.46-35.96
		c1.55-2.07,4.14-3.1,6.6-3.1c4.66,0,8.8,3.75,8.8,8.41c0,1.94-0.65,3.88-1.94,5.43l-23.02,27.16l26,32.47
		c1.16,1.55,1.81,3.36,1.81,5.17C309.7,104.2,305.82,108.59,300.77,108.59z"/>
	<path class="st0" d="M362.39,108.59c-3.88,0-7.5-2.33-8.92-6.08l-3.36-9.31h-36.99l-3.49,9.31c-1.42,3.75-5.04,6.08-9.05,6.08
		c-5.82,0-9.7-4.92-9.7-9.83c0-1.16,0.13-2.33,0.65-3.49l25.22-64.8c2.2-5.82,8.02-9.7,14.1-9.7c6.6-0.52,13.19,3.36,15.65,9.7
		l25.09,64.8c0.39,1.16,0.65,2.33,0.65,3.49C372.22,103.55,368.34,108.59,362.39,108.59z M331.6,39.91l-13.45,37.12h26.9
		L331.6,39.91z"/>
	<path class="st0" d="M433.74,33.7l-25.09,65.19c-2.2,5.82-8.02,9.7-14.1,9.7h-1.81c-6.08,0-11.9-3.88-14.1-9.7L353.42,33.7
		c-0.52-1.03-0.65-2.2-0.65-3.36c0-4.66,3.88-9.57,9.7-9.57c4.01,0,7.76,2.46,9.18,6.34l21.99,60.79l21.86-60.79
		c1.29-3.75,5.04-6.34,9.05-6.34c5.82,0,9.83,4.66,9.83,9.57C434.39,31.51,434.13,32.67,433.74,33.7z"/>
	<path class="st0" d="M454,109.37c-12.55,0-28.07-4.14-32.85-11.25c-0.91-1.29-1.42-2.85-1.42-4.4c0-4.92,4.27-8.54,8.67-8.54
		c1.68,0,3.49,0.39,4.92,1.42c5.82,4.01,13.19,6.73,21.6,6.73c10.09,0,15-4.66,15-9.57c0-15.26-49.67-4.79-49.67-37.25
		c0-14.36,12.42-26.26,32.72-26.26c9.83,0,24.83,3.23,29.62,9.57c1.03,1.29,1.55,2.85,1.55,4.4c0,4.92-4.79,8.28-9.18,8.28
		c-1.55,0-3.1-0.39-4.66-1.29c-5.95-3.36-12.68-4.92-19.01-4.92c-7.89,0-12.29,3.49-12.29,8.67c0,13.71,49.54,4.53,49.54,36.73
		C488.53,97.47,477.28,109.37,454,109.37z"/>
	<path class="st1" d="M224.93,77.16h-21.99v22.38c0,4.92-4.14,9.05-9.31,9.05c-4.92,0-9.05-4.14-9.05-9.05V31.89
		c0-5.69,4.66-10.35,10.35-10.35h30.01c18.75,0,28.97,12.68,28.97,27.81C253.9,64.36,243.56,77.16,224.93,77.16z M222.47,37.71
		h-19.53V61h19.53c7.24,0,12.68-4.53,12.68-11.64C235.15,42.11,229.72,37.71,222.47,37.71z"/>
	<path class="st2" d="M300.77,108.59c-2.72,0-5.3-1.16-6.98-3.49l-24.06-31.82l-6.73,8.02v18.24c0,4.92-4.14,9.05-9.31,9.05
		c-4.92,0-9.05-4.14-9.05-9.05V29.82c0-4.92,4.14-9.05,9.31-9.05c4.92,0,9.05,4.14,9.05,9.05v30.27l28.46-35.96
		c1.55-2.07,4.14-3.1,6.6-3.1c4.66,0,8.8,3.75,8.8,8.41c0,1.94-0.65,3.88-1.94,5.43l-23.02,27.16l26,32.47
		c1.16,1.55,1.81,3.36,1.81,5.17C309.7,104.2,305.82,108.59,300.77,108.59z"/>
	<path class="st3" d="M362.39,108.59c-3.88,0-7.5-2.33-8.92-6.08l-3.36-9.31h-36.99l-3.49,9.31c-1.42,3.75-5.04,6.08-9.05,6.08
		c-5.82,0-9.7-4.92-9.7-9.83c0-1.16,0.13-2.33,0.65-3.49l25.22-64.8c2.2-5.82,8.02-9.7,14.1-9.7c6.6-0.52,13.19,3.36,15.65,9.7
		l25.09,64.8c0.39,1.16,0.65,2.33,0.65,3.49C372.22,103.55,368.34,108.59,362.39,108.59z M331.6,39.91l-13.45,37.12h26.9
		L331.6,39.91z"/>
	<path class="st4" d="M433.74,33.7l-25.09,65.19c-2.2,5.82-8.02,9.7-14.1,9.7h-1.81c-6.08,0-11.9-3.88-14.1-9.7L353.42,33.7
		c-0.52-1.03-0.65-2.2-0.65-3.36c0-4.66,3.88-9.57,9.7-9.57c4.01,0,7.76,2.46,9.18,6.34l21.99,60.79l21.86-60.79
		c1.29-3.75,5.04-6.34,9.05-6.34c5.82,0,9.83,4.66,9.83,9.57C434.39,31.51,434.13,32.67,433.74,33.7z"/>
	<path class="st5" d="M454,109.37c-12.55,0-28.07-4.14-32.85-11.25c-0.91-1.29-1.42-2.85-1.42-4.4c0-4.92,4.27-8.54,8.67-8.54
		c1.68,0,3.49,0.39,4.92,1.42c5.82,4.01,13.19,6.73,21.6,6.73c10.09,0,15-4.66,15-9.57c0-15.26-49.67-4.79-49.67-37.25
		c0-14.36,12.42-26.26,32.72-26.26c9.83,0,24.83,3.23,29.62,9.57c1.03,1.29,1.55,2.85,1.55,4.4c0,4.92-4.79,8.28-9.18,8.28
		c-1.55,0-3.1-0.39-4.66-1.29c-5.95-3.36-12.68-4.92-19.01-4.92c-7.89,0-12.29,3.49-12.29,8.67c0,13.71,49.54,4.53,49.54,36.73
		C488.53,97.47,477.28,109.37,454,109.37z"/>
	<g>
		<path class="st3" d="M190.59,120.36l-2.83,17.99h-3.9l2.83-17.99H190.59z"/>
		<path class="st3" d="M204.15,126.27c1.3-0.98,2.63-1.55,4.35-1.55c2.28,0,3.18,1.1,3.18,2.85c0,0.5-0.07,1.23-0.15,1.7l-1.45,9.08
			h-3.8l1.35-8.61c0.05-0.28,0.1-0.65,0.1-0.88c-0.03-0.78-0.45-1.03-1.15-1.03c-0.8,0-1.55,0.42-2.18,0.83l-1.53,9.68h-3.8
			l1.35-8.61c0.05-0.28,0.1-0.65,0.1-0.88c-0.03-0.78-0.43-1.03-1.13-1.03c-0.83,0-1.6,0.45-2.23,0.9l-1.5,9.61h-3.83l2.1-13.41h3.3
			l0.08,1.25c1.05-0.8,2.28-1.48,3.93-1.48C202.78,124.71,203.73,125.34,204.15,126.27z"/>
		<path class="st3" d="M219.27,124.94l0.05,1.1c0.3-0.22,1.73-1.33,3.6-1.33c2.63,0,3.6,1.93,3.6,4.68c0,3.98-1.78,9.21-6.41,9.21
			c-1.23,0-2.15-0.4-2.58-0.73l-0.9,5.71h-3.78l2.95-18.64H219.27z M222.67,130.07c0-1.65-0.68-2.3-1.55-2.3
			c-0.85,0-1.75,0.48-2.03,0.65l-1.1,6.91c0.18,0.1,0.65,0.33,1.38,0.33C221.79,135.65,222.67,132.22,222.67,130.07z"/>
		<path class="st3" d="M238.76,125.09l-1.28,3.55c-0.53-0.28-0.93-0.43-1.58-0.43c-0.8,0-1.73,0.45-2.3,0.88l-1.45,9.26h-3.83
			l2.13-13.41h3.3v1.35c0.75-0.75,1.75-1.58,3.15-1.58C237.63,124.71,238.38,124.89,238.76,125.09z"/>
		<path class="st3" d="M239.11,133.12c0-4.15,2.1-8.41,7.16-8.41c3.65,0,4.98,2.2,4.98,5.21c0,4.15-2.05,8.76-7.23,8.76
			C240.31,138.68,239.11,136.18,239.11,133.12z M247.32,129.95c0-1.28-0.35-2.28-1.53-2.28c-2.23,0-2.8,3.58-2.8,5.58
			c0,1.45,0.45,2.45,1.58,2.45C246.74,135.7,247.32,131.92,247.32,129.95z"/>
		<path class="st3" d="M264.58,124.67c0.6,0.83,0.88,1.68,0.88,2.73c0,1.25-0.43,2.6-1.05,3.98c-1.13,2.5-2.65,4.75-4.28,6.98h-4.53
			l-2.13-13.01l3.85-0.4l1.35,9.96c1.03-1.6,1.9-3.25,2.53-5.05c0.25-0.7,0.43-1.43,0.43-2.1c0-0.93-0.17-1.6-0.53-2.18
			L264.58,124.67z"/>
		<path class="st3" d="M272.84,124.94l-2.1,13.41h-3.8l2.13-13.41H272.84z M271.81,119.31c1.18,0,1.9,0.7,1.9,1.78
			c0,1.35-0.95,2.48-2.53,2.48c-1.18,0-1.88-0.73-1.88-1.9C269.31,120.29,270.31,119.31,271.81,119.31z"/>
		<path class="st3" d="M287.1,127.57c0,0.5-0.08,1.23-0.15,1.7l-1.43,9.08h-3.8l1.33-8.48c0.05-0.28,0.1-0.78,0.1-1.08
			c-0.02-0.7-0.42-0.95-1.1-0.95c-0.85,0-1.75,0.47-2.35,0.9l-1.5,9.61h-3.83l2.1-13.41h3.35v1.2c1.05-0.73,2.4-1.43,4.15-1.43
			C286.23,124.71,287.1,125.82,287.1,127.57z"/>
		<path class="st3" d="M298.69,125.79l0.33-0.85h3.25l-2.1,13.31c-0.55,3.5-2.2,5.78-6.51,5.78c-1.9,0-3.7-0.48-4.68-0.98l0.55-3.23
			c1,0.55,2.73,1.08,4.08,1.08c1.55,0,2.53-0.75,2.85-2.73l0.13-0.75c-0.58,0.58-1.65,1.05-3.05,1.05c-2.48,0-4.03-1.7-4.03-5.23
			c0-4.03,2-8.53,6.31-8.53C297.26,124.71,298.19,125.29,298.69,125.79z M295.06,135.53c0.67,0,1.35-0.28,1.83-0.6l1.05-6.73
			c-0.45-0.38-0.98-0.62-1.58-0.62c-2.3,0-2.93,3.65-2.93,5.38C293.43,134.7,294.01,135.53,295.06,135.53z"/>
		<path class="st3" d="M311.9,138.35l-0.2-17.99h3.6l-0.2,12.16h0.17l4.66-10.54h3.05l1.23,10.79l0.15,0.02l3.58-12.44h3.68
			l-5.68,17.99h-3.78l-1.43-11.36h-0.1l-4.9,11.36H311.9z"/>
		<path class="st3" d="M335.82,132.82c-0.23,0-0.48,0-0.7-0.03c0,1.9,0.93,2.68,2.73,2.68c1.2,0,2.33-0.45,3.33-0.95l-0.48,3.25
			c-1,0.5-2.4,0.85-4.03,0.85c-3.9,0-5.41-2.45-5.41-5.51c0-3.9,2.18-8.41,7.03-8.41c2.68,0,4.1,1.45,4.1,3.45
			C342.4,131.45,339.05,132.82,335.82,132.82z M335.27,130.35c0.15,0.03,0.33,0.03,0.48,0.03c1.5,0,3.38-0.55,3.38-1.93
			c0-0.73-0.4-1.08-1.13-1.08C336.65,127.37,335.44,128.79,335.27,130.35z"/>
		<path class="st3" d="M346.58,120.36h3.83l-2.05,13.04c-0.05,0.33-0.1,0.68-0.1,1c0,0.6,0.17,1.08,0.93,1.08
			c0.43,0,1.25-0.1,1.98-0.42l-0.45,3c-1.08,0.43-2.18,0.58-3.13,0.58c-2.53,0-3.35-1.1-3.35-2.85c0-0.38,0.03-0.78,0.1-1.2
			L346.58,120.36z"/>
		<path class="st3" d="M355.56,120.36h3.83l-2.05,13.04c-0.05,0.33-0.1,0.68-0.1,1c0,0.6,0.17,1.08,0.93,1.08
			c0.43,0,1.25-0.1,1.98-0.42l-0.45,3c-1.08,0.43-2.18,0.58-3.13,0.58c-2.53,0-3.35-1.1-3.35-2.85c0-0.38,0.03-0.78,0.1-1.2
			L355.56,120.36z"/>
		<path class="st3" d="M367.77,125.69c0.3-0.18,1.88-0.98,3.5-0.98c2.38,0,3.48,1.88,3.48,4.75c0,4.71-2.28,9.16-7.88,9.16
			c-1.88,0-3.78-0.53-4.78-1.08l2.75-17.19h3.78L367.77,125.69z M370.98,129.95c0-1.58-0.6-2.23-1.53-2.23
			c-0.85,0-1.8,0.48-2.08,0.65l-1.13,6.98c0.18,0.12,0.6,0.3,1.33,0.3C370.05,135.65,370.98,132.17,370.98,129.95z"/>
		<path class="st3" d="M381.54,132.82c-0.23,0-0.48,0-0.7-0.03c0,1.9,0.93,2.68,2.73,2.68c1.2,0,2.33-0.45,3.33-0.95l-0.48,3.25
			c-1,0.5-2.4,0.85-4.03,0.85c-3.9,0-5.41-2.45-5.41-5.51c0-3.9,2.18-8.41,7.03-8.41c2.68,0,4.1,1.45,4.1,3.45
			C388.12,131.45,384.77,132.82,381.54,132.82z M380.99,130.35c0.15,0.03,0.33,0.03,0.48,0.03c1.5,0,3.38-0.55,3.38-1.93
			c0-0.73-0.4-1.08-1.13-1.08C382.36,127.37,381.16,128.79,380.99,130.35z"/>
		<path class="st3" d="M395.45,124.94l-2.1,13.41h-3.8l2.13-13.41H395.45z M394.42,119.31c1.18,0,1.9,0.7,1.9,1.78
			c0,1.35-0.95,2.48-2.53,2.48c-1.18,0-1.88-0.73-1.88-1.9C391.92,120.29,392.92,119.31,394.42,119.31z"/>
		<path class="st3" d="M409.71,127.57c0,0.5-0.08,1.23-0.15,1.7l-1.43,9.08h-3.8l1.33-8.48c0.05-0.28,0.1-0.78,0.1-1.08
			c-0.02-0.7-0.42-0.95-1.1-0.95c-0.85,0-1.75,0.47-2.35,0.9l-1.5,9.61h-3.83l2.1-13.41h3.35v1.2c1.05-0.73,2.4-1.43,4.15-1.43
			C408.84,124.71,409.71,125.82,409.71,127.57z"/>
		<path class="st3" d="M421.3,125.79l0.33-0.85h3.25l-2.1,13.31c-0.55,3.5-2.2,5.78-6.51,5.78c-1.9,0-3.7-0.48-4.68-0.98l0.55-3.23
			c1,0.55,2.73,1.08,4.08,1.08c1.55,0,2.53-0.75,2.85-2.73l0.13-0.75c-0.58,0.58-1.65,1.05-3.05,1.05c-2.48,0-4.03-1.7-4.03-5.23
			c0-4.03,2-8.53,6.31-8.53C419.87,124.71,420.8,125.29,421.3,125.79z M417.67,135.53c0.67,0,1.35-0.28,1.83-0.6l1.05-6.73
			c-0.45-0.38-0.98-0.62-1.58-0.62c-2.3,0-2.93,3.65-2.93,5.38C416.04,134.7,416.62,135.53,417.67,135.53z"/>
		<path class="st3" d="M427.03,136.05c0.3-1.4,0.85-1.85,1.88-1.85s1.8,0.6,1.8,1.48c0,0.43-0.17,0.88-0.4,1.35l-2.88,5.86
			l-1.8-0.43L427.03,136.05z"/>
		<path class="st3" d="M186.69,145.38h11.14l-0.45,3h-7.23l-0.68,4.3h6.26l-0.45,3h-6.28l-0.75,4.65h7.51l-0.45,3.03h-11.44
			L186.69,145.38z"/>
		<path class="st3" d="M210.48,151.29c1.3-0.98,2.63-1.55,4.35-1.55c2.28,0,3.18,1.1,3.18,2.85c0,0.5-0.08,1.23-0.15,1.7l-1.45,9.08
			h-3.8l1.35-8.61c0.05-0.28,0.1-0.65,0.1-0.88c-0.02-0.78-0.45-1.03-1.15-1.03c-0.8,0-1.55,0.43-2.18,0.83l-1.53,9.68h-3.8
			l1.35-8.61c0.05-0.28,0.1-0.65,0.1-0.88c-0.02-0.78-0.43-1.03-1.13-1.03c-0.83,0-1.6,0.45-2.23,0.9l-1.5,9.61h-3.83l2.1-13.41h3.3
			l0.08,1.25c1.05-0.8,2.28-1.48,3.93-1.48C209.11,149.74,210.06,150.36,210.48,151.29z"/>
		<path class="st3" d="M225.6,149.96l0.05,1.1c0.3-0.23,1.73-1.33,3.6-1.33c2.63,0,3.6,1.93,3.6,4.68c0,3.98-1.78,9.21-6.41,9.21
			c-1.23,0-2.15-0.4-2.58-0.73l-0.9,5.71h-3.78l2.95-18.64H225.6z M229,155.09c0-1.65-0.68-2.3-1.55-2.3
			c-0.85,0-1.75,0.47-2.03,0.65l-1.1,6.91c0.17,0.1,0.65,0.33,1.38,0.33C228.12,160.67,229,157.25,229,155.09z"/>
		<path class="st3" d="M234.98,158.15c0-4.15,2.1-8.41,7.16-8.41c3.65,0,4.98,2.2,4.98,5.21c0,4.15-2.05,8.76-7.23,8.76
			C236.18,163.7,234.98,161.2,234.98,158.15z M243.19,154.97c0-1.28-0.35-2.28-1.53-2.28c-2.23,0-2.8,3.58-2.8,5.58
			c0,1.45,0.45,2.45,1.58,2.45C242.61,160.72,243.19,156.94,243.19,154.97z"/>
		<path class="st3" d="M267.54,149.71c0.63,0.83,0.9,1.7,0.9,2.75c0,1.23-0.43,2.58-1.05,3.93c-1.13,2.48-2.6,4.73-4.2,6.98h-3.68
			l-1.33-3.98c-0.75,1.33-1.65,2.73-2.55,3.98h-4.03l-2-13.04l3.6-0.38l1.48,9.93c1.1-1.7,1.98-3.28,2.58-5.03
			c0.23-0.7,0.4-1.4,0.4-2.08c0-0.93-0.17-1.6-0.53-2.15l3.45-0.93c0.63,0.83,0.88,1.7,0.88,2.75c0,1.13-0.42,2.38-1.05,3.63
			l1.25,3.98c0.98-1.63,1.9-3.35,2.55-5.18c0.25-0.7,0.43-1.43,0.43-2.08c0-0.93-0.18-1.63-0.55-2.18L267.54,149.71z"/>
		<path class="st3" d="M274.64,157.85c-0.22,0-0.47,0-0.7-0.03c0,1.9,0.93,2.68,2.73,2.68c1.2,0,2.33-0.45,3.33-0.95l-0.48,3.25
			c-1,0.5-2.4,0.85-4.03,0.85c-3.9,0-5.41-2.45-5.41-5.51c0-3.9,2.18-8.41,7.03-8.41c2.68,0,4.1,1.45,4.1,3.45
			C281.22,156.47,277.87,157.85,274.64,157.85z M274.09,155.37c0.15,0.03,0.33,0.03,0.48,0.03c1.5,0,3.38-0.55,3.38-1.93
			c0-0.73-0.4-1.08-1.13-1.08C275.47,152.39,274.27,153.82,274.09,155.37z"/>
		<path class="st3" d="M293.03,150.11l-1.28,3.55c-0.53-0.27-0.93-0.42-1.58-0.42c-0.8,0-1.73,0.45-2.3,0.88l-1.45,9.26h-3.83
			l2.13-13.41h3.3v1.35c0.75-0.75,1.75-1.58,3.15-1.58C291.91,149.74,292.66,149.91,293.03,150.11z"/>
		<path class="st3" d="M299.26,149.96l-2.1,13.41h-3.8l2.13-13.41H299.26z M298.24,144.33c1.18,0,1.9,0.7,1.9,1.78
			c0,1.35-0.95,2.48-2.53,2.48c-1.18,0-1.88-0.73-1.88-1.9C295.74,145.31,296.74,144.33,298.24,144.33z"/>
		<path class="st3" d="M313.53,152.59c0,0.5-0.08,1.23-0.15,1.7l-1.43,9.08h-3.8l1.33-8.48c0.05-0.28,0.1-0.78,0.1-1.08
			c-0.02-0.7-0.42-0.95-1.1-0.95c-0.85,0-1.75,0.48-2.35,0.9l-1.5,9.61h-3.83l2.1-13.41h3.35v1.2c1.05-0.73,2.4-1.43,4.15-1.43
			C312.65,149.74,313.53,150.84,313.53,152.59z"/>
		<path class="st3" d="M325.11,150.81l0.33-0.85h3.25l-2.1,13.31c-0.55,3.5-2.2,5.78-6.51,5.78c-1.9,0-3.7-0.48-4.68-0.98l0.55-3.23
			c1,0.55,2.73,1.08,4.08,1.08c1.55,0,2.53-0.75,2.85-2.73l0.12-0.75c-0.58,0.58-1.65,1.05-3.05,1.05c-2.48,0-4.03-1.7-4.03-5.23
			c0-4.03,2-8.53,6.31-8.53C323.69,149.74,324.61,150.31,325.11,150.81z M321.48,160.55c0.68,0,1.35-0.27,1.83-0.6l1.05-6.73
			c-0.45-0.38-0.98-0.62-1.58-0.62c-2.3,0-2.93,3.65-2.93,5.38C319.86,159.72,320.43,160.55,321.48,160.55z"/>
		<path class="st3" d="M348.91,159.22l0.25,3.25c-1.4,0.7-3.23,1.25-5.68,1.25c-4.83,0-6.38-3.45-6.38-7.38
			c0-5.38,2.63-11.34,9.06-11.34c4.43,0,5.43,2.68,5.46,5.23l-3.63,0.83c-0.08-1.85-0.65-3-2.25-3c-3.33,0-4.45,4.96-4.45,8.01
			c0,2.73,1.03,4.4,3.25,4.4C346.08,160.47,347.43,160,348.91,159.22z"/>
		<path class="st3" d="M351.46,158.15c0-4.15,2.1-8.41,7.16-8.41c3.65,0,4.98,2.2,4.98,5.21c0,4.15-2.05,8.76-7.23,8.76
			C352.66,163.7,351.46,161.2,351.46,158.15z M359.67,154.97c0-1.28-0.35-2.28-1.53-2.28c-2.23,0-2.8,3.58-2.8,5.58
			c0,1.45,0.45,2.45,1.58,2.45C359.09,160.72,359.67,156.94,359.67,154.97z"/>
		<path class="st3" d="M377.86,151.29c1.3-0.98,2.63-1.55,4.35-1.55c2.28,0,3.18,1.1,3.18,2.85c0,0.5-0.08,1.23-0.15,1.7l-1.45,9.08
			h-3.8l1.35-8.61c0.05-0.28,0.1-0.65,0.1-0.88c-0.03-0.78-0.45-1.03-1.15-1.03c-0.8,0-1.55,0.43-2.18,0.83l-1.53,9.68h-3.8
			l1.35-8.61c0.05-0.28,0.1-0.65,0.1-0.88c-0.03-0.78-0.43-1.03-1.13-1.03c-0.83,0-1.6,0.45-2.23,0.9l-1.5,9.61h-3.83l2.1-13.41h3.3
			l0.08,1.25c1.05-0.8,2.28-1.48,3.93-1.48C376.48,149.74,377.43,150.36,377.86,151.29z"/>
		<path class="st3" d="M399.73,151.29c1.3-0.98,2.63-1.55,4.35-1.55c2.28,0,3.18,1.1,3.18,2.85c0,0.5-0.08,1.23-0.15,1.7l-1.45,9.08
			h-3.8l1.35-8.61c0.05-0.28,0.1-0.65,0.1-0.88c-0.03-0.78-0.45-1.03-1.15-1.03c-0.8,0-1.55,0.43-2.18,0.83l-1.53,9.68h-3.8
			l1.35-8.61c0.05-0.28,0.1-0.65,0.1-0.88c-0.03-0.78-0.43-1.03-1.13-1.03c-0.83,0-1.6,0.45-2.23,0.9l-1.5,9.61h-3.83l2.1-13.41h3.3
			l0.08,1.25c1.05-0.8,2.28-1.48,3.93-1.48C398.35,149.74,399.3,150.36,399.73,151.29z"/>
		<path class="st3" d="M409.79,160.75c0-0.5,0.07-1.23,0.15-1.7l1.38-8.68l3.9-0.4l-1.35,8.56c-0.05,0.3-0.1,0.68-0.1,0.93
			c0,0.68,0.3,1.03,1.13,1.03c0.85,0,1.75-0.47,2.35-0.88l1.5-9.63h3.83l-2.1,13.41h-3.35v-1.1c-1.05,0.73-2.43,1.35-4.05,1.35
			C410.69,163.63,409.79,162.5,409.79,160.75z"/>
		<path class="st3" d="M436.84,152.59c0,0.5-0.08,1.23-0.15,1.7l-1.43,9.08h-3.8l1.33-8.48c0.05-0.28,0.1-0.78,0.1-1.08
			c-0.02-0.7-0.42-0.95-1.1-0.95c-0.85,0-1.75,0.48-2.35,0.9l-1.5,9.61h-3.83l2.1-13.41h3.35v1.2c1.05-0.73,2.4-1.43,4.15-1.43
			C435.96,149.74,436.84,150.84,436.84,152.59z"/>
		<path class="st3" d="M444.85,149.96l-2.1,13.41h-3.8l2.13-13.41H444.85z M443.82,144.33c1.18,0,1.9,0.7,1.9,1.78
			c0,1.35-0.95,2.48-2.53,2.48c-1.18,0-1.88-0.73-1.88-1.9C441.32,145.31,442.32,144.33,443.82,144.33z"/>
		<path class="st3" d="M452.33,152.64l-1,6.11c-0.03,0.28-0.08,0.53-0.08,0.78c0,0.62,0.28,1,1,1c0.53,0,1.43-0.2,2.05-0.48
			l-0.43,3.03c-0.85,0.38-2.2,0.58-3.3,0.58c-2.38,0-3.28-1.23-3.28-2.83c0-0.45,0.05-0.8,0.1-1.15l1.13-7.03h-1.75l0.43-2.68h1.73
			l0.42-2.43l4.05-1.6l-0.65,4.03h2.83l-0.4,2.68H452.33z"/>
		<path class="st3" d="M462.39,149.96l-2.1,13.41h-3.8l2.13-13.41H462.39z M461.36,144.33c1.18,0,1.9,0.7,1.9,1.78
			c0,1.35-0.95,2.48-2.53,2.48c-1.18,0-1.88-0.73-1.88-1.9C458.86,145.31,459.86,144.33,461.36,144.33z"/>
		<path class="st3" d="M468.81,157.85c-0.22,0-0.47,0-0.7-0.03c0,1.9,0.93,2.68,2.73,2.68c1.2,0,2.33-0.45,3.33-0.95l-0.48,3.25
			c-1,0.5-2.4,0.85-4.03,0.85c-3.9,0-5.41-2.45-5.41-5.51c0-3.9,2.18-8.41,7.03-8.41c2.68,0,4.1,1.45,4.1,3.45
			C475.4,156.47,472.04,157.85,468.81,157.85z M468.27,155.37c0.15,0.03,0.33,0.03,0.48,0.03c1.5,0,3.38-0.55,3.38-1.93
			c0-0.73-0.4-1.08-1.13-1.08C469.64,152.39,468.44,153.82,468.27,155.37z"/>
		<path class="st3" d="M477.05,159.55c0.85,0.63,2.88,1.25,4,1.25c1.05,0,1.83-0.3,1.83-1.28c0-2.03-5.38-1.3-5.38-5.46
			c0-2.75,2.3-4.33,5.25-4.33c2.15,0,3.88,0.78,4.83,1.5l-1.4,2.43c-1.18-0.78-2.4-1.18-3.25-1.18c-0.75,0-1.58,0.25-1.58,1.18
			c0,2.05,5.33,1.43,5.33,5.48c0,3.15-2.5,4.58-5.81,4.58c-2.03,0-3.73-0.63-4.43-1.08L477.05,159.55z"/>
	</g>
	<g>
		<circle class="st3" cx="84.32" cy="93.11" r="23.7"/>
		<path class="st1" d="M123.9,61.83c16.07,8.19,27.29,22.39,32.74,39.11c3.09-20.48-6.99-41.52-26.46-51.44
			c-19.47-9.92-42.41-5.7-57.17,8.83C89.75,52.91,107.83,53.64,123.9,61.83z"/>
		<path class="st2" d="M126.3,121.09c-2.82,17.81-12.86,32.87-27.08,43.22c20.43-3.39,37.33-19.48,40.75-41.06
			c3.42-21.58-7.68-42.1-26.07-51.64C124.23,85.85,129.12,103.28,126.3,121.09z"/>
		<path class="st3" d="M70.68,141.69c-17.81,2.82-35.24-2.08-49.48-12.4c9.54,18.38,30.06,29.48,51.64,26.07
			c21.58-3.42,37.67-20.32,41.06-40.75C103.55,128.83,88.5,138.87,70.68,141.69z"/>
		<path class="st4" d="M33.9,95.16C25.72,79.09,24.99,61,30.4,44.27c-14.54,14.76-18.75,37.7-8.83,57.17
			c9.92,19.47,30.96,29.54,51.44,26.46C56.29,122.44,42.09,111.23,33.9,95.16z"/>
		<path class="st5" d="M66.79,45.8c12.75-12.75,29.73-19.03,47.31-19.05c-18.52-9.26-41.65-6.18-57.1,9.27
			c-15.45,15.45-18.53,38.57-9.27,57.1C47.76,75.53,54.04,58.55,66.79,45.8z"/>
	</g>
	<g class="st6">
		<linearGradient id="SVGID_1_" gradientUnits="userSpaceOnUse" x1="352.7703" y1="29.3665" x2="375.5809" y2="29.3665">
			<stop  offset="0" style="stop-color:#FFFFFF;stop-opacity:0"/>
			<stop  offset="1" style="stop-color:#FFFFFF"/>
		</linearGradient>
		<path class="st7" d="M354.97,37.73c1.24-0.01,2.49-0.02,3.74-0.02c5.69,0,11.31,0.09,16.87,0.25l-3.93-10.86
			c-1.42-3.88-5.17-6.34-9.18-6.34c-5.82,0-9.7,4.92-9.7,9.57c0,1.16,0.13,2.33,0.65,3.36L354.97,37.73z"/>
		<linearGradient id="SVGID_2_" gradientUnits="userSpaceOnUse" x1="410.828" y1="31.9286" x2="484.1342" y2="31.9286">
			<stop  offset="0" style="stop-color:#FFFFFF;stop-opacity:0"/>
			<stop  offset="1" style="stop-color:#FFFFFF"/>
		</linearGradient>
		<path class="st8" d="M439.11,43.6c0.72-4.42,4.99-7.31,12.17-7.31c6.34,0,13.06,1.55,19.01,4.92c1.55,0.91,3.1,1.29,4.66,1.29
			c4.4,0,9.18-3.36,9.18-8.28c0-1.55-0.52-3.1-1.55-4.4c-4.79-6.34-19.79-9.57-29.62-9.57c-8.03,0-14.81,1.86-20.09,5
			c-1.68-2.61-4.63-4.48-8.31-4.48c-4.01,0-7.76,2.59-9.05,6.34l-4.67,13C420.61,41.03,430.06,42.2,439.11,43.6z"/>
		<linearGradient id="SVGID_3_" gradientUnits="userSpaceOnUse" x1="313.2036" y1="30.1275" x2="349.3141" y2="30.1275">
			<stop  offset="0" style="stop-color:#FFFFFF;stop-opacity:0"/>
			<stop  offset="1" style="stop-color:#FFFFFF"/>
		</linearGradient>
		<path class="st9" d="M349.31,37.79l-2.83-7.32c-2.46-6.34-9.05-10.22-15.65-9.7c-6.08,0-11.9,3.88-14.1,9.7l-3.53,9.06
			C324.85,38.58,336.92,37.99,349.31,37.79z"/>
		<linearGradient id="SVGID_4_" gradientUnits="userSpaceOnUse" x1="184.576" y1="48.3471" x2="263.0051" y2="48.3471">
			<stop  offset="0" style="stop-color:#FFFFFF;stop-opacity:0"/>
			<stop  offset="1" style="stop-color:#FFFFFF"/>
		</linearGradient>
		<path class="st10" d="M211.35,61h-8.41V37.71h19.53c7.24,0,12.68,4.4,12.68,11.64c0,1.31-0.19,2.53-0.53,3.65
			c8.78-2.52,18.28-4.78,28.39-6.74V29.82c0-4.92-4.14-9.05-9.05-9.05c-4.6,0-8.37,3.27-9.16,7.45c-4.82-4.15-11.49-6.68-19.86-6.68
			h-30.01c-5.69,0-10.35,4.66-10.35,10.35v44.03C191.35,70.52,200.4,65.5,211.35,61z"/>
		<linearGradient id="SVGID_5_" gradientUnits="userSpaceOnUse" x1="275.7282" y1="32.5209" x2="306.8529" y2="32.5209">
			<stop  offset="0" style="stop-color:#FFFFFF;stop-opacity:0"/>
			<stop  offset="1" style="stop-color:#FFFFFF"/>
		</linearGradient>
		<path class="st11" d="M299.9,40.79l5.02-5.92c1.29-1.55,1.94-3.49,1.94-5.43c0-4.66-4.14-8.41-8.8-8.41c-2.46,0-5.04,1.03-6.6,3.1
			l-15.73,19.88C283.5,42.76,291.57,41.68,299.9,40.79z"/>
	</g>
</g>
</svg>
