<?xml version="1.0" encoding="UTF-8"?>
<svg xmlns="http://www.w3.org/2000/svg" xmlns:xlink="http://www.w3.org/1999/xlink" baseProfile="tiny" version="1.2" viewBox="0 0 612 536">
  <!-- Generator: Adobe Illustrator 29.8.2, SVG Export Plug-In . SVG Version: 2.1.1 Build 3)  -->
  <g isolation="isolate">
    <g id="Layer_1">
      <g>
        <g>
          <g>
            <g>
              <image width="646" height="349" transform="translate(216.7 104.8) scale(.2)" xlink:href="Checkin-works-1.png" mix-blend-mode="multiply"/>
              <image width="693" height="634" transform="translate(239 104.8) scale(.2)" xlink:href="Checkin-works-2.png" mix-blend-mode="multiply"/>
            </g>
            <image width="161" height="161" transform="translate(318.5 57.5) scale(.2)" xlink:href="Checkin-works-3.png" mix-blend-mode="multiply"/>
          </g>
          <g mix-blend-mode="multiply">
            <g>
              <image width="527" height="485" transform="translate(158.4 241.8) scale(.2)" xlink:href="Checkin-works-4.png" mix-blend-mode="multiply"/>
              <image width="519" height="793" transform="translate(158.4 163.4) scale(.2)" xlink:href="Checkin-works-5.png" mix-blend-mode="multiply"/>
            </g>
            <image width="160" height="161" transform="translate(115.9 275.2) scale(.2)" xlink:href="Checkin-works-6.png" mix-blend-mode="multiply"/>
          </g>
          <g>
            <g>
              <image width="260" height="665" transform="translate(358.3 209.9) scale(.2)" xlink:href="Checkin-works-7.png" mix-blend-mode="multiply"/>
              <image width="746" height="516" transform="translate(241.7 251.4) scale(.2)" xlink:href="Checkin-works-8.png" mix-blend-mode="multiply"/>
            </g>
            <image width="161" height="161" transform="translate(396.5 344.1) scale(.2)" xlink:href="Checkin-works-9.png" mix-blend-mode="multiply"/>
          </g>
        </g>
        <g>
          <path d="M133.3,462c-1.8.9-5.3,1.8-9.9,1.8-10.6,0-18.5-6.7-18.5-19s7.9-19.7,19.6-19.7,7.6,1,8.9,1.7l-1.2,3.9c-1.8-.9-4.4-1.6-7.6-1.6-8.8,0-14.6,5.6-14.6,15.4s5.3,15.1,14.4,15.1,5.9-.6,7.9-1.6l1,3.8Z" fill="#575757"/>
          <path d="M144.2,425.7v15.7h18.1v-15.7h4.9v37.5h-4.9v-17.6h-18.1v17.6h-4.8v-37.5h4.8Z" fill="#575757"/>
          <path d="M195,445.6h-14.6v13.5h16.2v4.1h-21.1v-37.5h20.2v4.1h-15.4v11.8h14.6v4Z" fill="#575757"/>
          <path d="M229.1,462c-1.8.9-5.3,1.8-9.9,1.8-10.6,0-18.5-6.7-18.5-19s7.9-19.7,19.6-19.7,7.6,1,8.9,1.7l-1.2,3.9c-1.8-.9-4.4-1.6-7.6-1.6-8.8,0-14.6,5.6-14.6,15.4s5.3,15.1,14.4,15.1,5.9-.6,7.9-1.6l1,3.8Z" fill="#575757"/>
          <path d="M235.2,425.7h4.8v18.1h.2c1-1.4,2-2.8,2.9-4l11.4-14.1h6l-13.6,15.9,14.6,21.6h-5.7l-12.3-18.4-3.6,4.1v14.3h-4.8v-37.5Z" fill="#575757"/>
          <path d="M275.5,446.4v3.6h-13.7v-3.6h13.7Z" fill="#575757"/>
          <path d="M286.2,425.7v37.5h-4.8v-37.5h4.8Z" fill="#575757"/>
          <path d="M294.6,463.2v-37.5h5.3l12,19c2.8,4.4,4.9,8.3,6.7,12.2h.1c-.4-5.1-.6-9.6-.6-15.4v-15.7h4.6v37.5h-4.9l-11.9-19c-2.6-4.2-5.1-8.4-7-12.5h-.2c.3,4.8.4,9.3.4,15.5v16h-4.6Z" fill="#575757"/>
          <path d="M347.1,463.2l-9.5-37.5h5.1l4.4,19c1.1,4.7,2.1,9.3,2.8,12.9h.1c.6-3.7,1.8-8.2,3.1-13l5-18.9h5.1l4.6,19c1.1,4.4,2.1,8.9,2.6,12.8h.1c.8-4.1,1.8-8.3,3-12.9l4.9-18.9h4.9l-10.6,37.5h-5.1l-4.7-19.5c-1.2-4.8-1.9-8.4-2.4-12.2h-.1c-.7,3.7-1.5,7.4-2.9,12.2l-5.3,19.5h-5.1Z" fill="#575757"/>
          <path d="M420,444.1c0,12.9-7.8,19.7-17.4,19.7s-16.8-7.7-16.8-19,7.4-19.7,17.4-19.7,16.8,7.8,16.8,19ZM390.9,444.7c0,8,4.3,15.2,11.9,15.2s12-7.1,12-15.6-3.9-15.2-11.9-15.2-12,7.4-12,15.6Z" fill="#575757"/>
          <path d="M426.3,426.2c2.4-.5,5.9-.8,9.3-.8,5.2,0,8.5.9,10.8,3.1,1.9,1.7,2.9,4.2,2.9,7.1,0,4.9-3.1,8.2-7.1,9.6v.2c2.9,1,4.6,3.7,5.5,7.6,1.2,5.2,2.1,8.8,2.9,10.3h-5c-.6-1.1-1.4-4.3-2.5-8.9-1.1-5.2-3.1-7.1-7.5-7.3h-4.6v16.2h-4.8v-37ZM431.1,443.3h4.9c5.2,0,8.4-2.8,8.4-7.1s-3.5-6.9-8.6-7c-2.3,0-4,.2-4.8.4v13.7Z" fill="#575757"/>
          <path d="M456.2,425.7h4.8v18.1h.2c1-1.4,2-2.8,2.9-4l11.4-14.1h6l-13.6,15.9,14.6,21.6h-5.7l-12.3-18.4-3.6,4.1v14.3h-4.8v-37.5Z" fill="#575757"/>
          <path d="M485.6,457.3c2.2,1.3,5.3,2.4,8.7,2.4,4.9,0,7.8-2.6,7.8-6.4s-2-5.5-7.1-7.4c-6.1-2.2-9.9-5.3-9.9-10.6s4.8-10.2,12.1-10.2,6.6.9,8.3,1.8l-1.3,3.9c-1.2-.7-3.7-1.8-7.1-1.8-5.1,0-7.1,3.1-7.1,5.6s2.3,5.2,7.4,7.2c6.3,2.4,9.6,5.5,9.6,11s-4.3,10.8-13.1,10.8-7.6-1.1-9.6-2.4l1.2-4.1Z" fill="#575757"/>
        </g>
      </g>
    </g>
  </g>
</svg>