<?xml version="1.0" encoding="UTF-8"?><svg xmlns="http://www.w3.org/2000/svg" xmlns:xlink="http://www.w3.org/1999/xlink" viewBox="0 0 612 177.1"><defs><style>.k{isolation:isolate;}.l,.m,.n,.o,.p,.q,.r,.s,.t,.u{mix-blend-mode:multiply;}.v{fill:#575757;}.m{fill:url(#i);}.n{fill:url(#h);}.o{fill:url(#j);}.p{fill:url(#b);}.q{fill:url(#c);}.r{fill:url(#d);}.s{fill:url(#e);}.t{fill:url(#f);}.u{fill:url(#g);}</style><linearGradient id="b" x1="-1565.7" y1="-565.5" x2="-1508.3" y2="-565.5" gradientTransform="translate(-1432 784) rotate(134)" gradientUnits="userSpaceOnUse"><stop offset=".4" stop-color="#376fb6"/><stop offset="1" stop-color="#164194"/></linearGradient><linearGradient id="c" x1="-1546.4" y1="-607.2" x2="-1545.5" y2="-549.3" gradientTransform="translate(-1432 784) rotate(134)" gradientUnits="userSpaceOnUse"><stop offset=".4" stop-color="#76a4d8"/><stop offset="1" stop-color="#4466af"/></linearGradient><linearGradient id="d" x1="-1563.8" y1="-545.5" x2="-1550.1" y2="-545.5" gradientTransform="translate(-1584.5 -236.8) rotate(170.4)" xlink:href="#c"/><linearGradient id="e" x1="-727.4" y1="-877.9" x2="-670" y2="-877.9" gradientTransform="translate(517.8 1153) rotate(14)" gradientUnits="userSpaceOnUse"><stop offset="0" stop-color="#f9af1d"/><stop offset=".2" stop-color="#f8ab16"/><stop offset=".3" stop-color="#f6a019"/><stop offset=".6" stop-color="#f18421"/><stop offset="1" stop-color="#eb5b2e"/></linearGradient><linearGradient id="f" x1="-708.1" y1="-919.7" x2="-707.2" y2="-861.8" xlink:href="#e"/><linearGradient id="g" x1="-725.5" y1="-857.9" x2="-711.8" y2="-857.9" xlink:href="#e"/><linearGradient id="h" x1="-877.8" y1="1.8" x2="-820.4" y2="1.8" gradientTransform="translate(-137.9 -719.9) rotate(-106)" gradientUnits="userSpaceOnUse"><stop offset="0" stop-color="#79c5b4"/><stop offset=".1" stop-color="#73c4bb"/><stop offset=".3" stop-color="#63c2ce"/><stop offset=".4" stop-color="#60c2d3"/><stop offset=".5" stop-color="#58c0d1"/><stop offset=".7" stop-color="#45bdcc"/><stop offset=".8" stop-color="#25b8c5"/><stop offset="1" stop-color="#08b4bf"/></linearGradient><linearGradient id="i" x1="-858.5" y1="-40" x2="-857.6" y2="17.9" xlink:href="#h"/><linearGradient id="j" x1="-875.9" y1="21.8" x2="-862.2" y2="21.8" xlink:href="#h"/></defs><g class="k"><g id="a"><path class="p" d="M37.2,93.5c7.3-6.7,8.2-18.9,8.6-24.2-.2-12.3,5.7-20.5,15.1-20.8-3.9.3-4.3.3-7.3.9-3.9,1-5.9,1.5-10.6,4-2.7,1.6-5.1,3-8.3,6-1.7,1.8-3.9,4-6,7.1-1.8,3-2.3,3.7-3.8,7.2-.4,1.2-1,2.7-1.3,3.9-.6,2.3-1,4.9-.9,7.7,1,13,9.2,13.1,14.5,8.2h0Z"/><path class="q" d="M24.9,73.8c1.4-3.1,1.7-3.9,3.8-7.2,1.4-2,3.2-4.5,6-7.1,2.5-2.2,4.4-3.9,8.3-6,3.7-1.8,5.5-2.7,10.6-4,3.9-.7,4.3-.8,7.3-.9,1.3,0,2.8,0,4.2.4,8,1.6,16.2,7.9,22.5,16.5,10.4,16.8-.9,28.2-13.6,25.6-7.5-1.6-12-6.5-14.4-9.2-5.6-7.6-12.8-13.2-19.8-14.6-8.1-1.6-13.9,2.6-16.1,10.3.4-1.2.9-2.7,1.3-3.9h0Z"/><circle class="r" cx="41.4" cy="41.9" r="6.8" transform="translate(-16.8 32.8) rotate(-36.5)"/><g class="l"><path class="s" d="M74.1,124.9c-9.5-2.9-20.5,2.4-25.2,4.6-10.5,6.3-20.6,5.4-25.6-2.6,2.2,3.2,2.4,3.6,4.4,5.9,2.9,2.9,4.3,4.4,8.7,7.2,2.8,1.5,5.2,2.9,9.3,4.2,2.4.6,5.4,1.4,9.2,1.6,3.5,0,4.3,0,8.2-.3,1.2-.2,2.8-.5,4-.8,2.3-.6,4.7-1.6,7.1-3,10.8-7.4,6.8-14.5-.1-16.7h0Z"/><path class="t" d="M63.1,145.4c-3.4.4-4.3.5-8.2.3-2.5-.2-5.5-.5-9.2-1.6-3.1-1.1-5.6-1.9-9.3-4.2-3.4-2.3-5.1-3.4-8.7-7.2-2.6-3-2.8-3.4-4.4-5.9-.7-1.1-1.3-2.4-1.8-3.9-2.6-7.7-1.2-18,3.1-27.7,9.3-17.4,24.9-13.3,29-1,2.4,7.3.4,13.7-.7,17.1-3.8,8.6-5,17.6-2.7,24.4,2.6,7.8,9.2,10.8,17,8.8-1.2.3-2.8.6-4,.8h0Z"/><circle class="u" cx="27.3" cy="147" r="6.8"/></g><path class="n" d="M80.6,79.8c2.2,9.7,12.3,16.6,16.6,19.5,10.7,6,15,15.2,10.5,23.5,1.7-3.5,1.9-3.9,2.9-6.8,1.1-3.9,1.6-5.9,1.9-11.2,0-3.2,0-5.9-1-10.2-.7-2.4-1.5-5.4-3.2-8.7-1.7-3.1-2.1-3.8-4.4-6.9-.8-.9-1.9-2.2-2.7-3.1-1.7-1.7-3.7-3.3-6.2-4.6-11.8-5.7-16,1.4-14.4,8.4h0Z"/><path class="m" d="M103.8,79c2,2.7,2.5,3.5,4.4,6.9,1,2.2,2.3,5.1,3.2,8.7.6,3.2,1.1,5.8,1,10.2-.3,4.1-.4,6.2-1.9,11.2-1.3,3.7-1.5,4.1-2.9,6.8-.6,1.2-1.5,2.4-2.5,3.5-5.4,6.1-14.9,10-25.6,11.2-19.8.6-24-14.9-15.3-24.6,5.1-5.7,11.7-7.2,15.2-7.9,9.3-1,17.8-4.5,22.5-9.9,5.4-6.2,4.7-13.4-.9-19.1.8.9,1.9,2.1,2.7,3.1h0Z"/><path class="o" d="M128.5,113.5c-2.4,3-6.7,3.4-9.6,1.1-3-2.4-3.4-6.7-1.1-9.6,2.4-3,6.7-3.4,9.6-1.1,3,2.4,3.4,6.7,1.1,9.6Z"/><path class="v" d="M170,110.1c-1.8.9-5.5,1.8-10.2,1.8-10.9,0-19.2-6.9-19.2-19.6s8.2-20.4,20.3-20.4,7.9,1,9.2,1.7l-1.2,4.1c-1.9-.9-4.6-1.6-7.8-1.6-9.1,0-15.1,5.8-15.1,16s5.5,15.6,14.9,15.6,6.2-.6,8.2-1.6l1,4Z"/><path class="v" d="M181.3,72.6v16.2h18.8v-16.2h5.1v38.8h-5.1v-18.2h-18.8v18.2h-5v-38.8h5Z"/><path class="v" d="M233.9,93.2h-15.1v14h16.8v4.2h-21.8v-38.8h21v4.2h-15.9v12.3h15.1v4.1Z"/><path class="v" d="M269.2,110.1c-1.8.9-5.5,1.8-10.2,1.8-10.9,0-19.2-6.9-19.2-19.6s8.2-20.4,20.3-20.4,7.9,1,9.2,1.7l-1.2,4.1c-1.9-.9-4.6-1.6-7.8-1.6-9.1,0-15.1,5.8-15.1,16s5.5,15.6,14.9,15.6,6.2-.6,8.2-1.6l1,4Z"/><path class="v" d="M275.5,72.6h5v18.7h.2c1-1.5,2.1-2.9,3.1-4.1l11.9-14.6h6.2l-14,16.5,15.1,22.3h-5.9l-12.8-19.1-3.7,4.3v14.8h-5v-38.8Z"/><path class="v" d="M317.2,93.9v3.7h-14.2v-3.7h14.2Z"/><path class="v" d="M328.3,72.6v38.8h-5v-38.8h5Z"/><path class="v" d="M337.1,111.4v-38.8h5.5l12.4,19.6c2.9,4.5,5.1,8.6,7,12.6h.1c-.5-5.2-.6-10-.6-16v-16.2h4.7v38.8h-5.1l-12.3-19.7c-2.7-4.3-5.3-8.7-7.3-13h-.2c.3,5,.4,9.6.4,16.1v16.6h-4.7Z"/><path class="v" d="M391.4,111.4l-9.8-38.8h5.3l4.6,19.6c1.2,4.8,2.2,9.7,2.9,13.4h.1c.6-3.9,1.8-8.5,3.2-13.5l5.2-19.6h5.2l4.7,19.7c1.1,4.6,2.1,9.2,2.7,13.3h.1c.8-4.3,1.9-8.6,3.1-13.4l5.1-19.6h5.1l-11,38.8h-5.2l-4.9-20.2c-1.2-5-2-8.7-2.5-12.7h-.1c-.7,3.9-1.6,7.7-3,12.7l-5.5,20.2h-5.2Z"/><path class="v" d="M466.9,91.6c0,13.4-8.1,20.4-18,20.4s-17.4-7.9-17.4-19.7,7.7-20.4,18-20.4,17.4,8.1,17.4,19.6ZM436.8,92.2c0,8.3,4.5,15.7,12.4,15.7s12.4-7.3,12.4-16.1-4-15.8-12.4-15.8-12.4,7.7-12.4,16.2Z"/><path class="v" d="M473.4,73.1c2.5-.5,6.2-.8,9.6-.8,5.4,0,8.8,1,11.2,3.2,2,1.7,3,4.4,3,7.4,0,5.1-3.2,8.5-7.3,9.9v.2c3,1,4.8,3.8,5.7,7.8,1.3,5.4,2.2,9.2,3,10.6h-5.2c-.6-1.1-1.5-4.4-2.6-9.3-1.2-5.4-3.2-7.4-7.8-7.5h-4.7v16.8h-5v-38.3ZM478.4,90.8h5.1c5.4,0,8.7-2.9,8.7-7.4s-3.6-7.2-8.9-7.3c-2.4,0-4.1.2-4.9.5v14.2Z"/><path class="v" d="M504.4,72.6h5v18.7h.2c1-1.5,2.1-2.9,3-4.1l11.9-14.6h6.2l-14,16.5,15.1,22.3h-5.9l-12.8-19.1-3.7,4.3v14.8h-5v-38.8Z"/><path class="v" d="M534.9,105.3c2.2,1.4,5.5,2.5,9,2.5,5.1,0,8.1-2.7,8.1-6.6s-2.1-5.7-7.3-7.7c-6.3-2.2-10.2-5.5-10.2-11s5-10.5,12.5-10.5,6.8.9,8.6,1.9l-1.4,4.1c-1.3-.7-3.9-1.8-7.4-1.8-5.3,0-7.3,3.2-7.3,5.8s2.4,5.4,7.7,7.5c6.6,2.5,9.9,5.7,9.9,11.4s-4.4,11.2-13.6,11.2-7.8-1.1-9.9-2.5l1.3-4.2Z"/></g></g></svg>