<?xml version="1.0" encoding="UTF-8"?><svg xmlns="http://www.w3.org/2000/svg" xmlns:xlink="http://www.w3.org/1999/xlink" viewBox="0 0 612 536"><defs><style>.k{isolation:isolate;}.l,.m,.n,.o,.p,.q,.r,.s,.t,.u{mix-blend-mode:multiply;}.v{fill:#575757;}.m{fill:url(#i);}.n{fill:url(#h);}.o{fill:url(#j);}.p{fill:url(#b);}.q{fill:url(#c);}.r{fill:url(#d);}.s{fill:url(#e);}.t{fill:url(#f);}.u{fill:url(#g);}</style><linearGradient id="b" x1="-2004" y1="-269.8" x2="-1843" y2="-269.8" gradientTransform="translate(-1646.7 235.3) rotate(169.3)" gradientUnits="userSpaceOnUse"><stop offset=".4" stop-color="#376fb6"/><stop offset="1" stop-color="#164194"/></linearGradient><linearGradient id="c" x1="-1950" y1="-386.8" x2="-1947.5" y2="-224.4" gradientTransform="translate(-1646.7 235.3) rotate(169.3)" gradientUnits="userSpaceOnUse"><stop offset=".4" stop-color="#76a4d8"/><stop offset="1" stop-color="#4466af"/></linearGradient><linearGradient id="d" x1="-1998.6" y1="-213.6" x2="-1960.2" y2="-213.6" gradientTransform="translate(-1649.5 195.7) rotate(170.4)" xlink:href="#c"/><linearGradient id="e" x1="-571.7" y1="-863.3" x2="-410.8" y2="-863.3" gradientTransform="translate(-119.6 1235.9) rotate(49.3)" gradientUnits="userSpaceOnUse"><stop offset="0" stop-color="#f9af1d"/><stop offset=".2" stop-color="#f8ab16"/><stop offset=".3" stop-color="#f6a019"/><stop offset=".6" stop-color="#f18421"/><stop offset="1" stop-color="#eb5b2e"/></linearGradient><linearGradient id="f" x1="-517.7" y1="-980.4" x2="-515.3" y2="-817.9" xlink:href="#e"/><linearGradient id="g" x1="-566.4" y1="-807.1" x2="-528" y2="-807.1" gradientTransform="translate(-569.7 968.5) rotate(80.4)" xlink:href="#e"/><linearGradient id="h" x1="-778.9" y1="666.1" x2="-617.9" y2="666.1" gradientTransform="translate(-17 -587.1) rotate(-70.7)" gradientUnits="userSpaceOnUse"><stop offset="0" stop-color="#79c5b4"/><stop offset=".1" stop-color="#73c4bb"/><stop offset=".3" stop-color="#63c2ce"/><stop offset=".4" stop-color="#60c2d3"/><stop offset=".5" stop-color="#58c0d1"/><stop offset=".7" stop-color="#45bdcc"/><stop offset=".8" stop-color="#25b8c5"/><stop offset="1" stop-color="#08b4bf"/></linearGradient><linearGradient id="i" x1="-724.9" y1="549.1" x2="-722.4" y2="711.6" xlink:href="#h"/><linearGradient id="j" x1="-773.5" y1="722.4" x2="-735.2" y2="722.4" xlink:href="#h"/></defs><g class="k"><g id="a"><path class="p" d="M244.4,188.2c27.6-3.6,49.5-30.1,58.9-41.4,19.5-28.4,46.3-37.8,68.3-23.2-9.3-5.6-10.4-6.4-18.1-9.7-10.7-4-16-6.1-30.7-8.1-8.9-.7-16.6-1.3-28.6.3-6.9,1.2-15.4,2.7-25.3,6.6-9,3.9-11.2,4.8-20.4,10.4-2.8,2-6.6,4.6-9.3,6.7-5.2,4.2-10.1,9.6-14.6,16.1-18.9,31.4-.3,45,19.8,42.4h0Z"/><path class="q" d="M248.5,123c8.1-4.9,10.3-6.2,20.4-10.4,6.5-2.3,14.7-5.1,25.3-6.6,9.2-.9,16.4-1.6,28.6-.3,11.4,1.8,17.1,2.7,30.7,8.1,10.1,4.7,11.1,5.2,18.1,9.7,3.1,2.1,6.2,4.7,9.1,7.8,15.7,16.6,24.1,44.3,24.6,74.3-3.4,55.3-47.8,63.1-72.6,36.5-14.7-15.8-16.9-34.4-18.2-44.4-.4-26.4-7.8-50.8-21.7-65.4-15.8-16.8-36.2-16.6-53.7-2.4,2.8-2.1,6.4-4.9,9.3-6.7h0Z"/><circle class="r" cx="337.8" cy="76.9" r="19.2" transform="translate(-1.5 6.7) rotate(-1.1)"/><g class="l"><path class="s" d="M278.1,319.8c-16.9-22.1-50.8-27.8-65.3-30.3-34.4-2.7-55.9-21.2-54.2-47.5-.3,10.8-.3,12.2.6,20.6,1.8,11.3,2.8,16.9,8.3,30.6,3.8,8,7.2,15,14.6,24.7,4.5,5.3,10.1,12,18.3,18.6,7.9,5.9,9.8,7.3,19.2,12.4,3.1,1.5,7.3,3.4,10.5,4.7,6.2,2.4,13.3,3.9,21.2,4.6,36.7.7,39.1-22.2,26.8-38.3h0Z"/><path class="t" d="M219.7,348.9c-8.3-4.6-10.5-5.9-19.2-12.4-5.2-4.5-11.8-10.2-18.3-18.6-5.4-7.5-9.6-13.4-14.6-24.7-4.1-10.8-6.2-16.2-8.3-30.6-.9-11.1-1-12.2-.6-20.6.2-3.8.9-7.7,2.2-11.8,6.5-21.9,26.3-43.1,52-58.4,49.6-24.7,78.6,9.8,67.9,44.7-6.3,20.6-21.3,31.9-29.4,37.9-22.6,13.5-40.1,32.2-45.8,51.5-6.6,22.1,3.7,39.6,24.7,47.7-3.2-1.4-7.4-3.1-10.5-4.7h0Z"/><circle class="u" cx="135.1" cy="294.6" r="19.2" transform="translate(-132.9 112.3) rotate(-31.1)"/></g><path class="n" d="M366.1,227c-10.7,25.7,1.3,57.9,6.4,71.7,14.8,31.1,9.6,59-14,70.7,9.5-5.2,10.7-5.9,17.5-10.8,8.8-7.2,13.3-10.9,22.4-22.5,5-7.4,9.4-13.7,14.1-24.9,2.4-6.5,5.3-14.7,6.9-25.2,1.1-9.8,1.4-12.1,1.2-22.9-.3-3.4-.7-8-1.2-11.4-1-6.6-3.2-13.5-6.6-20.6-17.7-32.1-38.8-22.7-46.6-4h0Z"/><path class="m" d="M420.5,263.1c.1,9.5.2,12-1.2,22.9-1.3,6.8-2.9,15.3-6.9,25.2-3.8,8.4-6.8,15-14.1,24.9-7.3,9-10.9,13.5-22.4,22.5-9.1,6.3-10.1,7-17.5,10.8-3.4,1.7-7.1,3-11.3,4-22.2,5.3-50.5-1.3-76.6-15.8-46.2-30.6-30.8-73,4.7-81.1,21-4.8,38.3,2.5,47.6,6.5,23,12.8,47.9,18.6,67.5,14,22.4-5.3,32.4-23,28.9-45.2.4,3.4,1,8,1.2,11.4h0Z"/><path class="o" d="M421.1,381.9c-10.2,2.9-20.8-2.9-23.7-13.1-2.9-10.2,2.9-20.8,13.1-23.7,10.2-2.9,20.8,2.9,23.7,13.1,2.9,10.2-2.9,20.8-13.1,23.7Z"/><path class="v" d="M133.3,462c-1.8.9-5.3,1.8-9.9,1.8-10.6,0-18.5-6.7-18.5-19s7.9-19.7,19.6-19.7,7.6,1,8.9,1.7l-1.2,3.9c-1.8-.9-4.4-1.6-7.6-1.6-8.8,0-14.6,5.6-14.6,15.4s5.3,15.1,14.4,15.1,5.9-.6,7.9-1.6l1,3.8Z"/><path class="v" d="M144.2,425.7v15.7h18.1v-15.7h4.9v37.5h-4.9v-17.6h-18.1v17.6h-4.8v-37.5h4.8Z"/><path class="v" d="M195,445.6h-14.6v13.5h16.2v4.1h-21.1v-37.5h20.2v4.1h-15.4v11.8h14.6v4Z"/><path class="v" d="M229.1,462c-1.8.9-5.3,1.8-9.9,1.8-10.6,0-18.5-6.7-18.5-19s7.9-19.7,19.6-19.7,7.6,1,8.9,1.7l-1.2,3.9c-1.8-.9-4.4-1.6-7.6-1.6-8.8,0-14.6,5.6-14.6,15.4s5.3,15.1,14.4,15.1,5.9-.6,7.9-1.6l1,3.8Z"/><path class="v" d="M235.2,425.7h4.8v18.1h.2c1-1.4,2-2.8,2.9-4l11.4-14.1h6l-13.6,15.9,14.6,21.6h-5.7l-12.3-18.4-3.6,4.1v14.3h-4.8v-37.5Z"/><path class="v" d="M275.5,446.4v3.6h-13.7v-3.6h13.7Z"/><path class="v" d="M286.2,425.7v37.5h-4.8v-37.5h4.8Z"/><path class="v" d="M294.6,463.2v-37.5h5.3l12,19c2.8,4.4,4.9,8.3,6.7,12.2h.1c-.4-5.1-.6-9.6-.6-15.4v-15.7h4.6v37.5h-4.9l-11.9-19c-2.6-4.2-5.1-8.4-7-12.5h-.2c.3,4.8.4,9.3.4,15.5v16h-4.6Z"/><path class="v" d="M347.1,463.2l-9.5-37.5h5.1l4.4,19c1.1,4.7,2.1,9.3,2.8,12.9h.1c.6-3.7,1.8-8.2,3.1-13l5-18.9h5.1l4.6,19c1.1,4.4,2.1,8.9,2.6,12.8h.1c.8-4.1,1.8-8.3,3-12.9l4.9-18.9h4.9l-10.6,37.5h-5.1l-4.7-19.5c-1.2-4.8-1.9-8.4-2.4-12.2h-.1c-.7,3.7-1.5,7.4-2.9,12.2l-5.3,19.5h-5.1Z"/><path class="v" d="M420,444.1c0,12.9-7.8,19.7-17.4,19.7s-16.8-7.7-16.8-19,7.4-19.7,17.4-19.7,16.8,7.8,16.8,19ZM390.9,444.7c0,8,4.3,15.2,11.9,15.2s12-7.1,12-15.6-3.9-15.2-11.9-15.2-12,7.4-12,15.6Z"/><path class="v" d="M426.3,426.2c2.4-.5,5.9-.8,9.3-.8,5.2,0,8.5.9,10.8,3.1,1.9,1.7,2.9,4.2,2.9,7.1,0,4.9-3.1,8.2-7.1,9.6v.2c2.9,1,4.6,3.7,5.5,7.6,1.2,5.2,2.1,8.8,2.9,10.3h-5c-.6-1.1-1.4-4.3-2.5-8.9-1.1-5.2-3.1-7.1-7.5-7.3h-4.6v16.2h-4.8v-37ZM431.1,443.3h4.9c5.2,0,8.4-2.8,8.4-7.1s-3.5-6.9-8.6-7c-2.3,0-4,.2-4.8.4v13.7Z"/><path class="v" d="M456.2,425.7h4.8v18.1h.2c1-1.4,2-2.8,2.9-4l11.4-14.1h6l-13.6,15.9,14.6,21.6h-5.7l-12.3-18.4-3.6,4.1v14.3h-4.8v-37.5Z"/><path class="v" d="M485.6,457.3c2.2,1.3,5.3,2.4,8.7,2.4,4.9,0,7.8-2.6,7.8-6.4s-2-5.5-7.1-7.4c-6.1-2.2-9.9-5.3-9.9-10.6s4.8-10.2,12.1-10.2,6.6.9,8.3,1.8l-1.3,3.9c-1.2-.7-3.7-1.8-7.1-1.8-5.1,0-7.1,3.1-7.1,5.6s2.3,5.2,7.4,7.2c6.3,2.4,9.6,5.5,9.6,11s-4.3,10.8-13.1,10.8-7.6-1.1-9.6-2.4l1.2-4.1Z"/></g></g></svg>