<?xml version="1.0" encoding="UTF-8"?>
<svg id="Layer_1" xmlns="http://www.w3.org/2000/svg" baseProfile="tiny" version="1.2" viewBox="0 0 1900.8 610.9">
  <!-- Generator: Adobe Illustrator 29.8.2, SVG Export Plug-In . SVG Version: 2.1.1 Build 3)  -->
  <path d="M598,306.4c0-133-107.8-240.8-240.8-240.8s-5.3.1-7.9.2c-1.8,3.5-3.6,6-3.6,6-3.9,7.7,7.8,3.2,7.8,3.2,15.5-4.5,31,15.5,31,15.5,8.4,0,3.9,7.1,3.9,7.1-12.3,12.9-35.5,2.6-35.5,2.6,3.2,12.9-5.2,23.2-5.2,23.2-5.2,8.4-7.8,27.1-7.8,27.1-12.3,89.8,10.3,132.4,10.3,132.4,7.8,8.4,18.7,18.7,25.2,27.8,6.5,9,36.2,11.6,36.2,11.6,55.6,11,53.6,47.8,53.6,47.8-3.2,19.4,16.8,30.4,16.8,30.4,9-2.6,11,8.4,11,8.4,5.2,6.5.6,18.7.6,18.7,8.4,16.8-9.7,1.9-9.7,1.9,1.9-13.6-3.9-15.5-3.9-15.5l-5.2-3.9v-4.5c-10.3-5.2-15.5-16.1-15.5-16.1,0,0-7.1,14.2,7.7,42,14.9,27.8,8.4,42,8.4,42-2.2,20.2-.8,35,.3,42.4,72.9-41.4,122.1-119.7,122.1-209.5M460.7,472.2c-4.5-4.5-4.5-25.8-4.5-25.8-7.8-14.8-20-20.7-20-20.7-3.2,9,0,29.1,0,29.1,7.7,12.3,3.9,26.5,3.9,26.5-7.1,12.9-3.2,28.4-3.2,28.4l1.3,17.4c1.5,1.7,2.3,3.5,2.7,5.1,5.9-2.2,11.6-4.6,17.2-7.2,1-4.9,2.6-10.2,2.6-10.2,4.5-15.5,0-42.6,0-42.6" fill="#a81f18"/>
  <path d="M423.9,521.9l-.7-42c-7.1-8.4-5.8-27.1-5.8-27.1,5.2,13.6-18.7-51-23.9-53.6-2.4-1.2-18.7-2.6-18.7-2.6-5.8,15.5,1.3,73.6,1.3,73.6,14.2,40,14.2,62,14.2,62l3.9,12.1c6-.9,11.9-2.1,17.8-3.5,1.4-10.7,11.9-18.9,11.9-18.9M368.3,531c11.6-40.7-23.2-132.4-23.2-132.4-21.3,26.5-33.6,112.4-29.1,131.1,1.6,6.6,2.2,11.2,2.4,14.3,12.6,2,25.6,3.2,38.8,3.2s.7,0,1.1,0c.2-8.9,10-16.2,10-16.2M298.6,521.3c21.3-78.8,5.8-134.3,5.8-134.3-14.2-20,9.7-89.8,9.7-89.8,9.7-69.7-2.6-149.8-2.6-149.8-24.5,0-28.4,20.7-28.4,20.7-5.2,14.8-29.7,5.2-29.7,5.2-25.8,1.9-3.9-24.6-3.9-24.6-3.9-9,10.3-12.9,10.3-12.9,20.7-13.6,28.4-38.1,28.4-38.1-13.6,7.1-25.8-1.3-25.8-1.3-2.6-2.7-7.3-4.6-11.6-6-79.7,39.3-134.5,121.3-134.5,216.1s70.4,198.4,167.5,229.4c11.3-4.7,14.7-14.5,14.7-14.5" fill="#f5a259"/>
  <path d="M357.2,41.2c-146.4,0-265.1,118.7-265.1,265.1s118.7,265.1,265.1,265.1,265.1-118.7,265.1-265.1S503.6,41.2,357.2,41.2M357.2,562.2c-141.3,0-255.8-114.5-255.8-255.8S192.4,75.8,312.3,54.6c1-5.1,3.1-8.7,3.1-8.7,12.2-2.9,16.2,1.5,17.4,5.9,1.5-.1,3.1-.2,4.6-.3,4.8-4.9,10.3-4.9,10.3-4.9,3.7.2,5.4,1.8,5.9,4.1,1.2,0,2.4-.1,3.6-.1,141.3,0,255.8,114.5,255.8,255.8s-114.5,255.8-255.8,255.8" fill="#a81f18"/>
  <path d="M814,89.8s-11,0-12.3,7.1c0,0-7.1,1.3-10.3,6.4,0,0-20.7,26.5-21.3,49.7-.7,23.2-15.5,13.6-15.5,13.6l-3.9,2s-11.6-2-11,4.5c0,0-15.5-2.6-16.8,18.7,0,0-1.3,11,.6,16.1,0,0-11.6,20.7,38.1,52.3l-5.8,5.2-5.2,11s-8.4,7.1-5.2,18.1c0,0-7.1,10.3-7.1,40.7l1.9,5.2v7.1s-5.2,8.4-23.9,8.4-46.5,32.3-37.5,78.8c0,0,31.6,92.4,98.2,100.8,0,0,27.8,4.5,49.1-5.2,0,0,14.2-11,21.3-12.3,0,0,122.7-86.6-42.6-182.1,0,0-13.6-49.1-1.9-59.4,0,0,32.9,5.2,40,1.9l16.8-7.7s20-12.9,21.3-24.5c0,0,10.3-22-5.2-40.7,0,0-34.2-44.6-49.7-45.2,0,0-23.9,5.2-18.1-11.6,0,0,25.2-44.6,43.3-3.2,0,0,12.3,34.2,27.1,18.7,0,0,39.4-11,19.4-57.5-20-46.5-77.5-23.2-84-16.8M843.1,427.6c5.8,20-3.9,22.6-3.9,22.6,1.3,7.1-10.3,23.9-10.3,23.9-2.6.6-12.3,12.3-12.3,12.3l-18.7,14.2c-32.3,16.8-62-14.8-62-14.8l-2.6-8.4c-6.5-5.8-17.4-24.5-17.4-24.5-13.6-45.9,11-62.7,11-62.7h5.2c1.3-7.1,14.9-5.2,14.9-5.2l15.5-8.4c12.3-6.5,31.7,2.6,31.7,2.6,36.2-1.3,49.1,48.4,49.1,48.4M825.6,200.9c3.2,0,16.8,16.8,16.8,16.8,15.5,13.6-14.2,26.5-14.2,26.5l-29.7-2.6c-3.9-5.2-17.4-9.7-17.4-9.7-9,.6-19.4-12.9-19.4-12.9-9.7-18.1,16.8-20.7,16.8-20.7l16.2-3.2c25.2-3.2,31,5.8,31,5.8M950.3,203.5s39.4-26.5,11-46.5c0,0-3.2-14.2-25.8-11,0,0-27.1,14.2-25.2,25.2,0,0-6.5,16.8,8.4,27.8,0,0,18.7,8.4,31.6,4.5M985.8,295.2s0-64-14.2-64.6c0,0-23.2-3.9-29.7,0,0,0-26.5-3.2-24.5,13.6,0,0,3.9,21.3,3.9,29.1,0,0,7.7,117.6,16.8,136.9,0,0-2.6,17.4,13.6,17.4,0,0,40.7,1.3,36.8-13.6,0,0-7.1-104.6-2.6-118.8M1169.3,385.7s-15.5-9.1-16.8-14.2c0,0-24.5-29.1-45.9-36.8-21.3-7.7,1.9-9.7,1.9-9.7,0,0,9-9,20.7-9.7,0,0,14.8-12.9,22-36.8,0,0,0-22-11.6-40,0,0,4.5-43.9-76.9-49.7,0,0-53,3.9-51,18.7l1.3,11s-7.8,38.8-1.3,60.7l5.2,104.6,3.2,78.8s7.7-4.5,14.8,0c0,0,24.5,1.9,34.9-12.3l-13.6-93.7s23.9,2.6,78.2,51.7c0,0,4.5,11,19.4,0,0,0,21.3-19.4,15.5-22.6M1075,308.1s-22,8.4-23.2-2.6l-2.6-71.1s9-13.6,24.5-9.7c0,0,27.8,2,31,7.1,0,0,15.5,15.5,16.8,22,0,0,9,32.9-25.2,44.6,0,0-19.4,4.5-21.3,9.7M1361.1,272s0-12.3-8.4-25.2l-29.7-89.8-3.2-11s-2.6-37.5-14.8-15.5c0,0-5.8,18.7-9.7,23.2,0,0-90.4,229.3-113,259,0,0-5.8,17.5-10.3,21.3,0,0-9,34.9,13.6,20.7,0,0,6.5-.7,9,1.3,0,0,18.1-3.2,21.3-7.1l18.7.7s22.6-31.6,30.4-57.5c0,0,5.2-12.3,32.9-14.8,0,0,5.2,5.8,14.9.6,0,0,11.6-6.5,16.1,14.2l7.7,31s1.9,5.2,1.9,12.3c0,0-3.9,20.7,23.9,15.5,0,0,42.6,1.3,43.9-17.5,0,0-1.9-12.3-5.8-19.4,0,0-18.7-96.2-39.4-142.1M1314.6,352.1c-8.4,1.9-26.5,1.3-26.5,1.3l-12.9,3.2c-16.8,1.3-3.9-23.2-3.9-23.2,5.2-9.7,17.4-42.6,18.1-46.5,5.8-19.4,19.4,5.8,19.4,5.8,3.2,0,8.4,14.9,8.4,14.9v14.2c7.7,1.9,6.5,20,6.5,20,9,16.1-9,10.3-9,10.3M1478.7,153.1c-4.5-5.8-11.6-2-11.6-2l-42.6-3.2c-17.4-3.2-12.9,7.7-12.9,7.7-7.8,14.2,1.9,159.5,1.9,159.5-7.8,20.7,3.9,46.5,3.9,46.5-3.9,6.4,2.6,106.6,2.6,106.6,1.3,12.9,43.3,7.8,43.3,7.8,5.8,0,1.3-64.6.7-77.5,4.5-16.1,1.9-19.4,1.9-19.4l40-6.5c9-2.6,5.8-34.9,5.8-34.9,9-22-42-17.4-42-17.4-14.2-1.3-7.1-35.5-7.1-35.5l-3.9-10.3c1.9-5.2,2.6-38.1,3.9-43.9,3.2-5.2,1.9-16.8,1.9-16.8,3.9-4.5,1.9-14.8,1.9-14.8-1.3-11.6,26.5-3.9,26.5-3.9,11,5.8,18.7,0,18.7,0,14.2,0,13.6-34.2,13.6-34.2-23.9-11-46.5-7.7-46.5-7.7M1641.4,156.3l-36.2-5.2s-46.5-.6-52.3-2.6c0,0-11-5.8-11,8.4,0,0-1.9,116.3,1.9,136.3,0,0-.6,18.7-1.9,25.8,0,0-1.3,7.8,2.6,13.6,0,0-7.8,7.8,0,19.4,0,0-1.3,33.6,1.9,48.4,0,0,5.2,44.6,3.2,54.9,0,0-5.2,19.4,12.3,21.3,0,0,31,9,36.2-9.1,0,0-4.5-81.4-1.3-84.6l3.2-3.2s12.9-1.3,20.7-6.5c0,0,19.4,2.6,22-12.3,0,0,2.6-12.3-.7-15.5,0,0,3.2-5.2,1.3-18.7,0,0-10.3-8.4-46.5-7.1l-3.2-7.8s0-31-2.6-36.2c0,0,3.2-43.3,2-60.7,0,0,6.4-9,5.2-15.5,0,0-3.9-7.7,12.3-6.5,0,0,33.6,9.1,40-.6l1.9-7.1s3.2-21.3-.6-26.5c0,0-9,1.9-10.3-2.6M1739.6,129.2l35.5-1.3c9.1-7.1,4.5-47.8,4.5-47.8-23.9-5.8-41.3-.6-41.3-.6-5.8.6-31,2.6-31,2.6-17.4-2.6-12.9,11.6-12.9,11.6l-.6,24.5c-3.2,3.9-2.6,66.5-2.6,66.5-19.4,9.1-5.8,105.3-5.8,105.3-5.8,9.7-15.5,178.3-15.5,178.3-3.9,8.4-4.5,42-4.5,42-3.9,18.1,35.5,14.9,35.5,14.9l16.1,3.9c30.4,7.8,25.2-31,25.2-31-2-19.4-20.7-18.7-20.7-18.7-15.5-3.2-12.3-23.3-12.3-23.3,3.9-9,9-91.1,9-91.1l38.8,2.6c10.3-2.6,10.3-48.4,10.3-48.4-.6-15.5-41.3-14.8-41.3-14.8l1.3-10.3c2.6-7.1,5.8-29.1,7.1-31-9.7-14.2-7.1-73-7.1-73-.6-6.4,4.5-51.7,4.5-51.7-1.3-10.3,7.7-9,7.7-9" fill="#f7f5f5"/>
</svg>