<?xml version="1.0" encoding="UTF-8"?>
<svg id="Layer_1" xmlns="http://www.w3.org/2000/svg" baseProfile="tiny" version="1.2" viewBox="0 0 1900.8 610.9">
  <!-- Generator: Adobe Illustrator 29.8.2, SVG Export Plug-In . SVG Version: 2.1.1 Build 3)  -->
  <path d="M397.5,550.7c-134.9,0-244.3-109.4-244.3-244.3s86.9-220.2,201.4-240.4c1-4.9,2.9-8.3,2.9-8.3,11.7-2.8,15.5,1.4,16.6,5.6,1.5-.1,2.9-.2,4.4-.3,4.6-4.6,9.9-4.7,9.9-4.7,3.5.2,5.2,1.7,5.7,4,1.2,0,2.3,0,3.4,0,134.9,0,244.3,109.4,244.3,244.3s-109.4,244.3-244.3,244.3" fill="#fff"/>
  <path d="M627.5,306.4c0-127-103-230-230-230s-5,.1-7.5.2c-1.8,3.3-3.4,5.7-3.4,5.7-3.7,7.4,7.4,3.1,7.4,3.1,14.8-4.3,29.6,14.8,29.6,14.8,8,0,3.7,6.8,3.7,6.8-11.7,12.3-33.9,2.5-33.9,2.5,3.1,12.3-4.9,22.2-4.9,22.2-4.9,8-7.4,25.9-7.4,25.9-11.7,85.8,9.9,126.5,9.9,126.5,7.4,8,17.9,17.9,24.1,26.5,6.2,8.6,34.5,11.1,34.5,11.1,53.1,10.5,51.2,45.6,51.2,45.6-3.1,18.5,16,29,16,29,8.6-2.5,10.5,8,10.5,8,4.9,6.2.6,17.9.6,17.9,8,16-9.3,1.8-9.3,1.8,1.8-13-3.7-14.8-3.7-14.8l-4.9-3.7v-4.3c-9.9-4.9-14.8-15.4-14.8-15.4,0,0-6.8,13.6,7.4,40.1,14.2,26.5,8,40.1,8,40.1-2.1,19.3-.8,33.4.3,40.5,69.6-39.5,116.6-114.3,116.6-200.1M496.3,464.8c-4.3-4.3-4.3-24.7-4.3-24.7-7.4-14.2-19.1-19.7-19.1-19.7-3.1,8.6,0,27.8,0,27.8,7.4,11.7,3.7,25.3,3.7,25.3-6.8,12.3-3.1,27.1-3.1,27.1l1.2,16.7c1.4,1.6,2.2,3.3,2.6,4.9,5.6-2.1,11.1-4.4,16.5-6.9,1-4.7,2.5-9.7,2.5-9.7,4.3-14.8,0-40.7,0-40.7" fill="#a81f18"/>
  <path d="M461.2,512.3l-.6-40.1c-6.8-8-5.5-25.9-5.5-25.9,4.9,13-17.9-48.7-22.8-51.2-2.3-1.1-17.9-2.5-17.9-2.5-5.6,14.8,1.2,70.3,1.2,70.3,13.6,38.2,13.6,59.2,13.6,59.2l3.7,11.5c5.8-.9,11.4-2,17-3.4,1.4-10.2,11.4-18,11.4-18M408.1,520.9c11.1-38.9-22.2-126.5-22.2-126.5-20.4,25.3-32.1,107.3-27.8,125.2,1.5,6.3,2.1,10.7,2.3,13.7,12.1,1.9,24.4,3,37.1,3s.7,0,1.1,0c.2-8.5,9.6-15.4,9.6-15.4M341.5,511.7c20.4-75.3,5.5-128.3,5.5-128.3-13.6-19.1,9.3-85.8,9.3-85.8,9.3-66.6-2.5-143.1-2.5-143.1-23.4,0-27.1,19.7-27.1,19.7-4.9,14.2-28.4,4.9-28.4,4.9-24.7,1.8-3.7-23.5-3.7-23.5-3.7-8.6,9.9-12.3,9.9-12.3,19.7-13,27.1-36.4,27.1-36.4-13,6.8-24.7-1.2-24.7-1.2-2.5-2.5-7-4.4-11.1-5.7-76.1,37.5-128.4,115.8-128.4,206.4s67.2,189.5,160,219.1c10.8-4.5,14-13.9,14-13.9" fill="#f5a259"/>
  <path d="M397.5,53.2c-139.8,0-253.2,113.4-253.2,253.2s113.4,253.2,253.2,253.2,253.2-113.4,253.2-253.2-113.4-253.2-253.2-253.2M397.5,550.7c-134.9,0-244.3-109.4-244.3-244.3s86.9-220.2,201.4-240.4c1-4.9,2.9-8.3,2.9-8.3,11.7-2.8,15.5,1.4,16.6,5.6,1.5-.1,2.9-.2,4.4-.3,4.6-4.6,9.9-4.7,9.9-4.7,3.5.2,5.2,1.7,5.7,4,1.2,0,2.3,0,3.4,0,134.9,0,244.3,109.4,244.3,244.3s-109.4,244.3-244.3,244.3" fill="#a81f18"/>
  <path d="M833.8,99.6s-10.5,0-11.7,6.8c0,0-6.8,1.2-9.9,6.2,0,0-19.7,25.3-20.4,47.5-.6,22.2-14.8,12.9-14.8,12.9l-3.7,1.9s-11.1-1.9-10.5,4.3c0,0-14.8-2.5-16,17.9,0,0-1.2,10.5.6,15.4,0,0-11.1,19.7,36.4,50l-5.5,4.9-4.9,10.5s-8,6.8-4.9,17.3c0,0-6.8,9.9-6.8,38.9l1.8,4.9v6.8s-4.9,8-22.8,8-44.4,30.9-35.8,75.3c0,0,30.2,88.2,93.8,96.2,0,0,26.5,4.3,46.9-4.9,0,0,13.6-10.5,20.4-11.7,0,0,117.2-82.7-40.7-174,0,0-13-46.9-1.8-56.8,0,0,31.4,4.9,38.2,1.8l16-7.4s19.1-12.3,20.4-23.4c0,0,9.9-21-4.9-38.9,0,0-32.7-42.6-47.5-43.2,0,0-22.8,4.9-17.3-11.1,0,0,24.1-42.6,41.3-3.1,0,0,11.7,32.7,25.9,17.9,0,0,37.6-10.5,18.5-54.9-19.1-44.4-74-22.2-80.2-16M861.5,422.2c5.6,19.1-3.7,21.6-3.7,21.6,1.2,6.8-9.9,22.8-9.9,22.8-2.5.6-11.7,11.7-11.7,11.7l-17.9,13.6c-30.9,16-59.2-14.2-59.2-14.2l-2.5-8c-6.2-5.6-16.7-23.4-16.7-23.4-13-43.8,10.5-59.8,10.5-59.8h4.9c1.2-6.8,14.2-4.9,14.2-4.9l14.8-8c11.7-6.2,30.2,2.5,30.2,2.5,34.5-1.2,46.9,46.3,46.9,46.3M844.9,205.7c3.1,0,16,16,16,16,14.8,13-13.6,25.3-13.6,25.3l-28.4-2.5c-3.7-4.9-16.7-9.2-16.7-9.2-8.6.6-18.5-12.3-18.5-12.3-9.2-17.3,16-19.7,16-19.7l15.4-3.1c24.1-3.1,29.6,5.5,29.6,5.5M963.9,208.2s37.6-25.3,10.5-44.4c0,0-3.1-13.6-24.7-10.5,0,0-25.9,13.6-24.1,24.1,0,0-6.2,16,8,26.5,0,0,17.9,8,30.2,4.3M997.8,295.8s0-61.1-13.6-61.7c0,0-22.2-3.7-28.4,0,0,0-25.3-3.1-23.4,13,0,0,3.7,20.4,3.7,27.8,0,0,7.4,112.3,16,130.8,0,0-2.5,16.7,12.9,16.7,0,0,38.9,1.2,35.2-13,0,0-6.8-99.9-2.5-113.5M1173,382.1s-14.8-8.6-16-13.6c0,0-23.4-27.8-43.8-35.2-20.4-7.4,1.8-9.2,1.8-9.2,0,0,8.6-8.6,19.7-9.3,0,0,14.2-12.3,21-35.2,0,0,0-21-11.1-38.2,0,0,4.3-41.9-73.4-47.5,0,0-50.6,3.7-48.7,17.9l1.2,10.5s-7.4,37-1.2,58l4.9,99.9,3.1,75.3s7.4-4.3,14.2,0c0,0,23.4,1.8,33.3-11.7l-13-89.4s22.8,2.5,74.6,49.3c0,0,4.3,10.5,18.5,0,0,0,20.4-18.5,14.8-21.6M1083,308.1s-21,8-22.2-2.5l-2.5-67.9s8.6-13,23.4-9.3c0,0,26.5,1.9,29.6,6.8,0,0,14.8,14.8,16,21,0,0,8.6,31.5-24.1,42.6,0,0-18.5,4.3-20.4,9.3M1356.2,273.6s0-11.7-8-24.1l-28.4-85.7-3.1-10.5s-2.5-35.8-14.2-14.8c0,0-5.5,17.9-9.2,22.2,0,0-86.4,219-108,247.3,0,0-5.5,16.7-9.9,20.4,0,0-8.6,33.3,13,19.7,0,0,6.2-.6,8.6,1.2,0,0,17.3-3.1,20.4-6.8l17.9.6s21.6-30.2,29-54.9c0,0,4.9-11.7,31.5-14.2,0,0,4.9,5.5,14.2.6,0,0,11.1-6.2,15.4,13.6l7.4,29.6s1.8,4.9,1.8,11.7c0,0-3.7,19.7,22.8,14.8,0,0,40.7,1.2,41.9-16.7,0,0-1.8-11.7-5.6-18.5,0,0-17.9-91.9-37.6-135.7M1311.8,350.1c-8,1.8-25.3,1.2-25.3,1.2l-12.3,3.1c-16,1.2-3.7-22.2-3.7-22.2,4.9-9.2,16.7-40.7,17.3-44.4,5.6-18.5,18.5,5.5,18.5,5.5,3.1,0,8,14.2,8,14.2v13.6c7.4,1.8,6.2,19.1,6.2,19.1,8.6,15.4-8.6,9.9-8.6,9.9M1468.5,160.1c-4.3-5.6-11.1-1.9-11.1-1.9l-40.7-3.1c-16.7-3.1-12.3,7.4-12.3,7.4-7.4,13.6,1.8,152.4,1.8,152.4-7.4,19.7,3.7,44.4,3.7,44.4-3.7,6.2,2.5,101.8,2.5,101.8,1.2,12.3,41.3,7.4,41.3,7.4,5.6,0,1.2-61.7.6-74,4.3-15.4,1.8-18.5,1.8-18.5l38.2-6.2c8.6-2.5,5.5-33.3,5.5-33.3,8.6-21-40.1-16.7-40.1-16.7-13.6-1.2-6.8-33.9-6.8-33.9l-3.7-9.9c1.8-4.9,2.5-36.4,3.7-41.9,3.1-4.9,1.8-16,1.8-16,3.7-4.3,1.8-14.2,1.8-14.2-1.2-11.1,25.3-3.7,25.3-3.7,10.5,5.5,17.9,0,17.9,0,13.6,0,13-32.7,13-32.7-22.8-10.5-44.4-7.4-44.4-7.4M1623.9,163.1l-34.5-4.9s-44.4-.6-50-2.5c0,0-10.5-5.5-10.5,8,0,0-1.8,111,1.8,130.2,0,0-.6,17.9-1.8,24.7,0,0-1.2,7.4,2.5,13,0,0-7.4,7.4,0,18.5,0,0-1.2,32.1,1.8,46.3,0,0,4.9,42.6,3.1,52.4,0,0-4.9,18.5,11.7,20.4,0,0,29.6,8.6,34.6-8.6,0,0-4.3-77.7-1.2-80.8l3.1-3.1s12.3-1.2,19.7-6.2c0,0,18.5,2.5,21-11.7,0,0,2.5-11.7-.6-14.8,0,0,3.1-4.9,1.2-17.9,0,0-9.9-8-44.4-6.8l-3.1-7.4s0-29.6-2.5-34.5c0,0,3.1-41.3,1.9-58,0,0,6.2-8.6,4.9-14.8,0,0-3.7-7.4,11.7-6.2,0,0,32.1,8.6,38.2-.6l1.8-6.8s3.1-20.4-.6-25.3c0,0-8.6,1.8-9.9-2.5M1717.7,137.2l33.9-1.2c8.6-6.8,4.3-45.6,4.3-45.6-22.8-5.5-39.5-.6-39.5-.6-5.6.6-29.6,2.5-29.6,2.5-16.7-2.5-12.3,11.1-12.3,11.1l-.6,23.4c-3.1,3.7-2.5,63.5-2.5,63.5-18.5,8.6-5.5,100.6-5.5,100.6-5.5,9.2-14.8,170.2-14.8,170.2-3.7,8-4.3,40.1-4.3,40.1-3.7,17.3,33.9,14.2,33.9,14.2l15.4,3.7c29,7.4,24.1-29.6,24.1-29.6-1.9-18.5-19.7-17.9-19.7-17.9-14.8-3.1-11.7-22.2-11.7-22.2,3.7-8.6,8.6-87,8.6-87l37,2.5c9.9-2.5,9.9-46.3,9.9-46.3-.6-14.8-39.5-14.2-39.5-14.2l1.2-9.9c2.5-6.8,5.6-27.8,6.8-29.6-9.2-13.6-6.8-69.7-6.8-69.7-.6-6.2,4.3-49.3,4.3-49.3-1.2-9.9,7.4-8.6,7.4-8.6"/>
</svg>