<?xml version="1.0" encoding="UTF-8"?><svg xmlns="http://www.w3.org/2000/svg" xmlns:xlink="http://www.w3.org/1999/xlink" viewBox="0 0 566.9 566.9"><defs><style>.k{isolation:isolate;}.l,.m,.n,.o,.p,.q,.r,.s,.t,.u{mix-blend-mode:multiply;}.m{fill:url(#i);}.n{fill:url(#h);}.o{fill:url(#j);}.p{fill:url(#b);}.q{fill:url(#c);}.r{fill:url(#d);}.s{fill:url(#e);}.t{fill:url(#f);}.u{fill:url(#g);}</style><linearGradient id="b" x1="-3422.8" y1="-365.9" x2="-3195.8" y2="-365.9" gradientTransform="translate(-3038.6 396.8) rotate(169.3)" gradientUnits="userSpaceOnUse"><stop offset=".4" stop-color="#376fb6"/><stop offset="1" stop-color="#164194"/></linearGradient><linearGradient id="c" x1="-3346.6" y1="-530.9" x2="-3343.1" y2="-301.8" gradientTransform="translate(-3038.6 396.8) rotate(169.3)" gradientUnits="userSpaceOnUse"><stop offset=".4" stop-color="#76a4d8"/><stop offset="1" stop-color="#4466af"/></linearGradient><linearGradient id="d" x1="-3415.2" y1="-286.6" x2="-3361.1" y2="-286.6" gradientTransform="translate(-3044.9 329.4) rotate(170.4)" xlink:href="#c"/><linearGradient id="e" x1="-842.6" y1="-1316.2" x2="-615.7" y2="-1316.2" gradientTransform="translate(-352.4 1774.5) rotate(49.3)" gradientUnits="userSpaceOnUse"><stop offset="0" stop-color="#f9af1d"/><stop offset=".2" stop-color="#f8ab16"/><stop offset=".3" stop-color="#f6a019"/><stop offset=".6" stop-color="#f18421"/><stop offset="1" stop-color="#eb5b2e"/></linearGradient><linearGradient id="f" x1="-766.5" y1="-1481.2" x2="-763" y2="-1252.1" xlink:href="#e"/><linearGradient id="g" x1="-835.1" y1="-1236.9" x2="-781" y2="-1236.9" gradientTransform="translate(-1027.3 1357.8) rotate(80.4)" xlink:href="#e"/><linearGradient id="h" x1="-1316.9" y1="1382.5" x2="-1089.9" y2="1382.5" gradientTransform="translate(-502.8 -1240.8) rotate(-70.7)" gradientUnits="userSpaceOnUse"><stop offset="0" stop-color="#79c5b4"/><stop offset=".1" stop-color="#73c4bb"/><stop offset=".3" stop-color="#63c2ce"/><stop offset=".4" stop-color="#60c2d3"/><stop offset=".5" stop-color="#58c0d1"/><stop offset=".7" stop-color="#45bdcc"/><stop offset=".8" stop-color="#25b8c5"/><stop offset="1" stop-color="#08b4bf"/></linearGradient><linearGradient id="i" x1="-1240.7" y1="1217.5" x2="-1237.2" y2="1446.5" xlink:href="#h"/><linearGradient id="j" x1="-1309.3" y1="1461.8" x2="-1255.2" y2="1461.8" xlink:href="#h"/></defs><g class="k"><g id="a"><path class="p" d="M212,205c38.9-5.1,69.8-42.4,83-58.3,27.5-40.1,65.3-53.3,96.3-32.7-13.1-7.9-14.7-9-25.6-13.7-15.1-5.7-22.6-8.5-43.3-11.4-12.5-1-23.4-1.8-40.4.4-9.7,1.7-21.7,3.9-35.6,9.3-12.7,5.5-15.8,6.8-28.7,14.7-4,2.8-9.3,6.5-13.1,9.5-7.3,5.9-14.2,13.5-20.5,22.7-26.7,44.3-.4,63.4,28,59.7h0Z"/><path class="q" d="M217.7,113.2c11.5-6.9,14.6-8.7,28.7-14.7,9.2-3.2,20.7-7.2,35.6-9.3,12.9-1.3,23.1-2.3,40.4-.4,16.1,2.5,24.1,3.8,43.3,11.4,14.2,6.7,15.7,7.4,25.6,13.7,4.4,2.9,8.7,6.6,12.8,10.9,22.1,23.4,34,62.5,34.7,104.7-4.8,78-67.4,89-102.4,51.4-20.7-22.2-23.9-48.5-25.6-62.7-.6-37.2-11.1-71.6-30.6-92.3-22.3-23.6-51-23.4-75.6-3.5,3.9-2.9,9-6.9,13.1-9.5h0Z"/><circle class="r" cx="343.6" cy="48.2" r="27" transform="translate(-.9 6.8) rotate(-1.1)"/><g class="l"><path class="s" d="M259.5,390.6c-23.8-31.1-71.6-39.2-92-42.7-48.4-3.8-78.8-29.9-76.5-67-.4,15.3-.4,17.2.9,29,2.6,15.9,3.9,23.9,11.7,43.2,5.4,11.3,10.1,21.1,20.5,34.8,6.3,7.5,14.2,16.9,25.8,26.2,11.1,8.3,13.8,10.2,27.1,17.5,4.4,2.1,10.3,4.8,14.8,6.6,8.7,3.4,18.8,5.6,29.9,6.4,51.7,1,55.1-31.4,37.7-54.1h0Z"/><path class="t" d="M177.1,431.6c-11.7-6.5-14.8-8.3-27.1-17.5-7.4-6.4-16.6-14.4-25.8-26.2-7.6-10.6-13.5-18.9-20.5-34.8-5.8-15.2-8.7-22.8-11.7-43.2-1.3-15.6-1.4-17.3-.9-29,.3-5.3,1.3-10.9,3-16.6,9.2-30.9,37.1-60.7,73.4-82.4,70-34.8,110.8,13.9,95.8,63-8.9,29-30.1,44.9-41.5,53.5-31.9,19.1-56.5,45.4-64.6,72.6-9.3,31.2,5.2,55.8,34.8,67.2-4.5-1.9-10.5-4.4-14.8-6.6h0Z"/><circle class="u" cx="57.8" cy="355.1" r="27" transform="translate(-175.3 81.1) rotate(-31.1)"/></g><path class="n" d="M383.5,259.8c-15,36.2,1.8,81.6,9,101,20.9,43.8,13.5,83.2-19.8,99.8,13.4-7.3,15.1-8.3,24.7-15.3,12.5-10.2,18.7-15.3,31.5-31.7,7.1-10.4,13.2-19.3,19.9-35.2,3.3-9.2,7.5-20.7,9.8-35.5,1.6-13.8,2-17.1,1.6-32.2-.4-4.8-1-11.3-1.7-16.1-1.5-9.2-4.6-19-9.4-29.1-25-45.3-54.7-32.1-65.7-5.6h0Z"/><path class="m" d="M460.3,310.7c.2,13.4.3,17-1.6,32.2-1.9,9.6-4.2,21.5-9.8,35.5-5.4,11.8-9.6,21.2-19.9,35.2-10.2,12.6-15.4,19-31.5,31.7-12.9,8.9-14.2,9.9-24.7,15.3-4.8,2.4-10.1,4.3-15.9,5.7-31.3,7.4-71.1-1.8-108-22.3-65.2-43.2-43.4-102.9,6.7-114.4,29.6-6.8,54,3.6,67.1,9.2,32.5,18.1,67.6,26.2,95.2,19.7,31.6-7.5,45.7-32.5,40.8-63.8.6,4.8,1.5,11.3,1.7,16.1h0Z"/><path class="o" d="M461.1,478.2c-14.3,4.2-29.3-4.1-33.5-18.5-4.2-14.3,4.1-29.3,18.5-33.5,14.3-4.2,29.3,4.1,33.5,18.5,4.2,14.3-4.1,29.3-18.5,33.5Z"/></g></g></svg>